<?xml version="1.0" encoding="UTF-8"?>
<svg id="Calque_2" data-name="Calque 2" xmlns="http://www.w3.org/2000/svg" viewBox="0 0 850 832.99">
  <defs>
    <style>
      .cls-1 {
        fill: #009a87;
        stroke-width: 0px;
      }
    </style>
  </defs>
  <g id="Graphic_Elements" data-name="Graphic Elements">
    <g>
      <path class="cls-1" d="m558.09,0c51.74,0,93.68,78.71,93.68,145.39s-41.94,120.75-93.68,120.75-93.68-54.06-93.68-120.75S506.35,0,558.09,0Z"/>
      <path class="cls-1" d="m291.91,0c51.74,0,93.68,78.71,93.68,145.39s-41.94,120.75-93.68,120.75-93.68-54.06-93.68-120.75S240.17,0,291.91,0Z"/>
      <path class="cls-1" d="m11.35,351.7C-10.62,296.69-1,217.56,42.86,200.04c43.86-17.52,105.35,33.2,127.32,88.21,21.97,55.01,4.23,113.81-39.63,131.33-43.86,17.52-97.23-12.87-119.2-67.88Z"/>
      <path class="cls-1" d="m838.65,351.7c-21.97,55.01-75.34,85.4-119.2,67.88-43.86-17.52-61.61-76.32-39.63-131.33,21.97-55.01,83.46-105.73,127.32-88.21,43.86,17.52,53.48,96.65,31.51,151.66Z"/>
      <path class="cls-1" d="m760.16,655.56c-10.05-45.05-34-85.68-60.49-123.34-62.07-88.22-161.49-177.3-274.67-177.3-112.71,0-212.58,89.06-274.67,177.3-26.5,37.66-50.45,78.28-60.49,123.34-10.05,45.06-4.55,95.44,23.36,132.04,27.91,36.6,80.78,54.87,122.12,35.06,24.58-11.78,44.47-35.53,71.59-37.82,24.89-2.1,46.89,14.67,67.66,28.69,15.01,10.13,33.1,19.35,50.43,19.47,17.33-.12,35.42-9.34,50.43-19.47,20.76-14.02,42.76-30.78,67.66-28.69,27.12,2.28,47.01,26.04,71.59,37.82,41.34,19.81,94.21,1.54,122.12-35.06,27.91-36.6,33.41-86.98,23.36-132.04Zm-236.57-54.27c-12.77,23.33-32.92,43.89-49.94,59.88-9.15,8.6-18.76,16.64-28.77,24.08-.02.01-.04.03-.06.04-11.76,8.66-27.88,8.66-39.64,0-.02-.02-.04-.03-.06-.04-10.01-7.43-19.62-15.48-28.77-24.08-17.02-15.99-37.17-36.55-49.94-59.88-10.55-19.27-16.06-40.44-10.6-62.5,5.23-21.14,21.92-39.71,42.38-42.31,23.66-3,51.2,13.65,66.81,32.77,15.6-19.12,43.15-35.77,66.81-32.77,20.46,2.59,37.15,21.17,42.38,42.31,5.46,22.06-.05,43.23-10.6,62.5Z"/>
    </g>
  </g>
</svg>