<?xml version="1.0" encoding="UTF-8"?>
<svg id="Calque_2" data-name="Calque 2" xmlns="http://www.w3.org/2000/svg" viewBox="0 0 1495.34 2028">
  <defs>
    <style>
      .cls-1 {
        fill: #009a87;
        stroke-width: 0px;
      }
    </style>
  </defs>
  <g id="objects">
    <g>
      <path class="cls-1" d="m1286.56,762.06c-65.48-68.07-142.04-122.47-227.56-161.69-88.27-40.48-182.48-63.04-280.02-67.07-10.4-.43-20.94-.65-31.31-.65-88.77,0-175.65,15.41-258.21,45.79-79.78,29.36-153.53,71.91-219.21,126.46-65.16,54.12-120.29,118.31-163.84,190.78-44.46,73.97-75.48,154.33-92.18,238.82-9.44,47.71-14.22,96.77-14.22,145.81,0,100.93,19.77,198.85,58.76,291.03,37.66,89.03,91.56,168.99,160.22,237.65,68.66,68.66,148.62,122.57,237.65,160.22,92.19,38.99,190.1,58.76,291.03,58.76s198.85-19.77,291.03-58.76c89.03-37.66,168.99-91.56,237.65-160.22,68.66-68.66,122.57-148.62,160.22-237.65,38.99-92.19,58.76-190.11,58.76-291.03,0-194.26-74.14-378.32-208.77-518.27Zm118.5,795.97c-35.93,84.96-87.38,161.26-152.9,226.78-65.53,65.53-141.83,116.97-226.78,152.9-87.95,37.2-181.38,56.06-277.7,56.06-24.17,0-48.16-1.19-71.92-3.56l19.08-42.26c5.21-11.5,5.77-21.39,3.9-33.86l-8.6-57.5c-4.34-28.92-27.29-51.46-56.29-55.27l-201.26-26.41c-26.74-3.51-50.25-19.46-63.39-43.01l-30.04-53.84c-9.57-17.15-24.76-30.47-43.01-37.71l-59.33-23.56c-21-8.34-37.83-24.67-46.8-45.4l-21.91-50.63c-10.22-23.62-30.55-41.36-55.34-48.28-18.09-5.05-39.32-10.97-56.62-15.79-14.57-57.25-21.93-116.25-21.93-176.39,0-46.82,4.57-93.65,13.57-139.18,1-5.08,2.06-10.14,3.18-15.19l39.03-23.22,37.71-22.44,159.26-94.75c12.4-7.38,20.88-19.88,23.14-34.13l7.19-45.28c3.23-20.36,18.98-36.47,39.27-40.16l65.96-12.01c16.06-2.91,29.57-13.69,35.98-28.69l30.2-70.67c.14-.32.28-.65.43-.97,6.38-14.06,19.09-24.29,34.24-27.47l51.11-10.73c8.38-1.77,16.65-1.26,24.22,1.06,18.71,5.77,33.11,22.66,34.27,43.81l1.93,35.34c.93,17.02,14.49,30.61,31.5,31.57.63.04,1.27.05,1.9.05,11.9,0,22.94-6.33,28.95-16.69l51.97-89.87,18.07-31.24c7.18-12.43,10.97-26.53,10.97-40.89v-81.07c34.43,1.45,68.42,5.33,101.85,11.59l20.78,70.17c6.96,23.48,6.08,48.59-2.49,71.52l-60.1,160.89c-18.8,50.33,16.08,104.58,69.66,108.38l162.64,11.52c27.85,1.97,53.99,14.2,73.35,34.33l131.22,136.4c21.27,22.11,50.64,34.61,81.32,34.61h100.88c2.47,24.24,3.74,48.73,3.74,73.4,0,96.32-18.86,189.76-56.06,277.7Z"/>
      <path class="cls-1" d="m768.24,401.42c184.1-70.81,288.39-198.58,289.2-199.77-.31,1.35-67.79,152.04-297.83,240.9-2.57,8.23-5.69,16.61-9.38,25.11,3.77,3.88,7.75,7.72,11.95,11.48,70.76,63.83,242.45,66.27,334.67-74.9,122.12-186.94,12.81-404.24,12.81-404.24,0,0-45.24,113.7-209.51,136.35-39.15,5.41-74.46,18.45-104.33,36.88-33.82,20.86-59.28,50.59-75.01,84.59,18.27,19.45,32.13,42.92,40.3,68.79,7.05,22.28,10.06,47.48,7.14,74.81Z"/>
      <path class="cls-1" d="m697.15,488.41c7.78-7.01,14.62-14.25,20.59-21.66-194.17-68-250.33-193.39-250.58-194.49.68,1.01,96.77,118.71,264.51,169.03,29.25-70,3.85-151.34-60.74-191.17-23.26-14.35-50.77-24.52-81.26-28.72-127.96-17.64-163.2-106.21-163.2-106.21,0,0-85.13,169.26,9.99,314.88,71.83,109.96,205.56,108.06,260.68,58.35Z"/>
      <path class="cls-1" d="m1153.63,1217.8c-3.05-1.22-6.27-1.83-9.48-1.83-4.61,0-9.21,1.25-13.26,3.7-8.39,5.09-17.65,7.51-26.8,7.51-17.51,0-34.59-8.89-44.33-24.95l-53.39-88.17c-11.46-18.91-31.81-30.65-53.91-31.08l-204.82-4.01c-23.84-.47-47.29,6.03-67.48,18.7l-99.24,62.26c-60.53,37.98-91.34,109.4-77.41,179.5,16.02,80.64,86.78,138.73,168.99,138.73h82.32c36.3,0,66.19,28.54,67.88,64.8l13.52,290.19c1.38,29.7,25.86,53.07,55.6,53.07,9.74,0,19.13-2.54,27.34-7.17,8.22-4.63,15.25-11.34,20.29-19.68,41.06-67.97,146.3-252.63,178.81-410.15,24.02-116.38,40.49-172.59,49.95-199.13,4.61-12.93-1.84-27.19-14.59-32.28Z"/>
    </g>
  </g>
</svg>