<svg id="Calque_2" data-name="Calque 2" xmlns="http://www.w3.org/2000/svg" viewBox="0 0 241.19 251.28"><defs><style>.cls-2,.cls-3,.cls-4{stroke-width:0}.cls-2{fill:#f8c4c3}.cls-3{fill:#1d1d1b}.cls-4{fill:#ee7382}</style></defs><g id="Calque_8" data-name="Calque 8"><path d="M175.35 225.27c3.73 2.03 7.94 3.17 12.19 3.29-.45-3.14.14-7.76 2.27-10.12 3.11 3.97 13.49 9.62 18.42 8.53-1.38-1.38-2.79-2.79-3.59-4.57s-.64-4.28.54-5.83c3.34 2.69 7.64 4.16 11.92 4.07s8.52-1.73 11.75-4.55a26.695 26.695 0 0 1-10.67-8.19c6.41.7 15.47.25 20.47-1.75-12-10-18-24-21-39-2-10 4-16 11-22-5-2-10-5-12-10 8.86 2.24 11.85-4.82 11.85-4.82-4.85-1.18-9.85-4.18-12.85-8.18 4.4.49 6.05-2.71 6.05-2.71-26.05-18.29-13.05-52.29-13.05-78.29 0-4-2-8-7-8-11-1-18.81 4.59-29.07 8.04l1.83 6.13c-2.98-3.97-2.97-9.39-5.84-13.31-2.65-3.62-6.22-1.12-9.38.36-4.47 2.09-5.49.73-7.86-2.94-2.48-3.85-4.87.4-7.38 2.12-.78-3.34-1.55-7.83-3.9-10.47-4.07-4.57-5.52 5.41-8.99 6.2-6.09 1.39-11.38-6.11-14-10.47-2.99-4.98-5.53-10.7-10.7-13.81C87.37-6.42 76.63 23.77 71.67 36.51S60.28 63.34 47.44 69.92c2.47 1.58 7.61 3.05 6.23 6.96-1.17 3.32-5.6 3.1-7.7 5.44-4.84 5.36 7.59 8.9 11.04 9.36-5.04 6.54-11.63 11.6-17.37 17.47 3.43 1.69 7.33 1.06 11 1-3.21 7.4-9.07 13.12-13.87 19.46 2.33-.5 4.65-1.08 7.02-1.37-5.14 18.91-23.14 26.91-40.14 33.91-1 1-2 3 0 5 5 3 10 3 15 4-2.08 2.92-5.79 3.94-8.15 6.57 8.48 4.61 18.17 6.38 27.73 6.75-4.2 2-7.89 4.89-11.58 7.68 5.51 2.37 12.22 2.82 18.08 1.13.68 4.37.31 8.89-1.06 13.09 7.52 2.47 17.12-.4 23.3-5.35.13 5.71-1.06 11.45-3.48 16.63 4.99-.17 10.94-1.66 15.43-4.07l-1.16-10.57c-1.82 7.6 6.23 18.32 10.11 21.92s10.91 6.5 15.66 6.29l-4.8-9.32c1.39 7.64 8.65 14.75 16.83 12.9l-3.62-6.84c1.64 6.83 13.36 18.58 19.64 20.79.83-4.14 4.02-6.01 6.9-7.99s6.06-3.11 9.02-4.92 5.8-4.48 7.07-8.42l-3.39 6.46c5.97-.53 13.89-3.5 16.15-10.77l-1.71 3.5c3.59-.78 10.62-2.24 12.89-5.97 2.27-3.73 2.93-8.19 2.73-12.95" style="stroke-width:0;fill:#fff"/><path class="cls-3" d="M174.09 227.43c4.18 2.23 8.72 3.46 13.45 3.63 1.22.04 2.67-1.19 2.5-2.5-.34-2.63-.24-6.27 1.54-8.35h-3.54c2.36 2.94 5.99 5.09 9.34 6.7s7.57 3.25 11.51 2.47c1.88-.38 2.36-2.92 1.1-4.18-1.93-1.93-4.63-4.54-2.66-7.36l-3.93.51c3.91 3.08 8.67 4.9 13.69 4.8s9.73-2.05 13.52-5.29c1.12-.96.92-3.31-.51-3.93a25.732 25.732 0 0 1-10.17-7.8l-1.77 4.27c3.64.38 7.32.41 10.96.12 3.42-.27 6.96-.71 10.17-1.96 1.58-.61 2.69-2.85 1.1-4.18-7.06-5.93-12.35-13.6-15.78-22.14-1.72-4.29-3.03-8.74-4.05-13.25-.91-4.04-1.32-7.97.62-11.78 2.11-4.16 5.73-7.3 9.21-10.29 1.58-1.36.47-3.54-1.1-4.18-3.97-1.61-8.51-4.09-10.25-8.25l-3.08 3.08c3.9.94 8 .62 11.26-1.89 1.37-1.06 2.72-2.46 3.41-4.08.62-1.43.22-3.24-1.49-3.67-4.3-1.09-8.61-3.46-11.35-7.04l-2.16 3.76c3.1.27 6.68-1.06 8.21-3.95.68-1.27.24-2.61-.9-3.42-6.32-4.48-10.86-10.81-13.04-18.15s-2.27-15.27-1.78-23.03c.51-8.08 1.69-16.09 2.43-24.15.35-3.76.76-7.64.56-11.42-.22-4.27-2.49-8.45-6.88-9.57-2.65-.67-5.77-.56-8.47-.25s-5.48.95-8.13 1.84c-5.35 1.81-10.39 4.39-15.74 6.21-1.26.43-2.15 1.72-1.75 3.08l1.83 6.13 4.57-1.93c-2.07-2.85-2.59-6.33-3.88-9.54s-3.57-7.01-7.68-6.87c-1.74.06-3.34.75-4.88 1.48-1.32.63-2.69 1.53-4.17 1.73.35-.05-.22 0-.33-.02.58.07-.35-.16-.08-.04.33.15-.43-.32-.19-.13.1.08-.39-.41-.52-.57-.17-.2-.65-.9-.94-1.34-.52-.8-1.04-1.62-1.77-2.24-1.61-1.37-3.66-1.45-5.48-.44-1.51.84-2.6 2.34-3.94 3.29l3.67 1.49c-.73-3.18-1.35-6.46-2.95-9.35-1.28-2.31-3.63-4.82-6.55-3.98-2.12.61-3.35 2.75-4.4 4.52-.26.43-.51.87-.79 1.29-.12.19-.25.38-.37.57-.06.09-.13.18-.19.27-.22.31.24-.28 0 0-.15.18-.32.34-.47.51-.31.35.3-.19-.06.07-.27.19-.39.13-.01.04-.33.08-.45.1-.74.12-2.37.11-4.57-1.7-6.26-3.48-1.86-1.96-3.35-4.23-4.71-6.56-3.36-5.73-6.46-11.75-12.67-14.86C101.96-.11 97.12-.81 92.65.98S84.84 6.11 82 9.85c-5.61 7.38-8.99 16.26-12.3 24.83-4.29 11.09-9.37 23.38-19.4 30.52-1.31.93-2.69 1.76-4.12 2.5-1.72.9-1.52 3.37 0 4.32 1.13.71 2.36 1.24 3.51 1.92.66.39.89.55 1.34.98.35.33.14.08.3.38.24.45.07.16.04.07.15.4.04-.05.03.2 0 .28 0 .07.02.01-.06.19-.09.4-.16.58-.04.09-.12.21-.25.36-.38.43-.78.62-1.44.94-1.21.59-2.77 1.04-4.03 1.92-2.53 1.77-4 4.79-2.57 7.73 1.1 2.27 3.62 3.69 5.84 4.66 2.39 1.04 4.94 1.91 7.53 2.27l-1.1-4.18c-5.07 6.51-11.61 11.61-17.37 17.47-1.04 1.06-.99 3.23.51 3.93 3.96 1.84 8.03 1.44 12.26 1.34l-2.16-3.76c-3.26 7.38-9.05 13.12-13.87 19.46-1.43 1.88.92 4.08 2.82 3.67 2.11-.45 4.21-1 6.35-1.28l-2.41-3.16c-2.58 9.29-8.93 16.39-16.89 21.57-4.12 2.68-8.52 4.91-12.99 6.94-2.17.98-4.36 1.92-6.56 2.84-1.18.49-2.56.83-3.4 1.84C.6 161.89 0 163.26 0 164.75c.03 4.16 4.34 5.86 7.7 6.88s6.86 1.27 10.29 1.94l-1.49-3.67c-.9 1.2-2.29 2-3.53 2.79-1.5.96-3 1.96-4.22 3.27-1.06 1.14-.96 3.14.51 3.93 8.92 4.8 18.95 6.68 28.99 7.09l-1.26-4.66c-4.2 2.03-7.88 4.88-11.58 7.68-1.81 1.37-1.46 3.7.6 4.57 6.08 2.55 13.07 2.9 19.41 1.13l-3.08-1.75c.58 3.95.14 7.97-1.06 11.76-.42 1.32.5 2.68 1.75 3.08 8.8 2.79 18.72-.45 25.73-5.99l-4.27-1.77c.09 5.29-.93 10.55-3.14 15.37-.74 1.62.1 3.85 2.16 3.76 5.77-.23 11.57-1.71 16.69-4.41.71-.37 1.33-1.34 1.24-2.16-.39-3.52-.77-7.05-1.16-10.57-.14-1.24-.85-2.3-2.17-2.46-1.17-.14-2.47.56-2.74 1.79-1.34 6.03 1.6 12.24 4.86 17.16s7.12 9.04 12.5 11.55c3.36 1.57 7.08 2.78 10.82 2.67 1.96-.06 3.03-2.06 2.16-3.76-1.6-3.11-3.2-6.21-4.8-9.32-.56-1.09-2.04-1.5-3.12-1.02-1.19.52-1.69 1.69-1.45 2.95 1.76 9.11 10.39 16.65 19.9 14.64 1.65-.35 2.21-2.33 1.49-3.67-1.21-2.28-2.41-4.56-3.62-6.84-1.35-2.55-5.25-.77-4.57 1.93 1.28 5.07 5.19 9.57 8.72 13.23s7.76 7.52 12.66 9.3c1.23.45 2.8-.51 3.08-1.75.48-2.19 1.79-3.69 3.58-4.99 2.36-1.72 4.84-3.13 7.46-4.42 5.35-2.65 9.97-6.04 11.96-11.91.91-2.67-3.25-4.43-4.57-1.93-1.13 2.15-2.26 4.31-3.39 6.46-.8 1.53.16 3.95 2.16 3.76 7.89-.75 15.95-4.59 18.56-12.6.87-2.66-3.31-4.49-4.57-1.93l-1.71 3.5c-.97 1.98.62 4.15 2.82 3.67 4.38-.96 9.14-2.01 12.61-5.02 2.02-1.75 3.16-4.46 3.89-6.97.87-3.02 1.08-6.21.96-9.34s-5.12-3.22-5 0c.1 2.56 0 5.12-.67 7.61-.53 2-1.34 4.09-2.8 5.25-2.78 2.19-6.88 2.9-10.31 3.65l2.82 3.67 1.71-3.5-4.57-1.93c-1.88 5.78-8.47 8.43-13.73 8.93l2.16 3.76c1.13-2.15 2.26-4.31 3.39-6.46l-4.57-1.93c-1.88 5.54-7.28 7.61-12.04 10.12s-9.76 5.81-10.95 11.21l3.08-1.75c-.17-.06-.57-.23-.18-.06-.21-.09-.41-.19-.61-.29-.44-.22-.87-.46-1.3-.71-.97-.58-1.9-1.22-2.8-1.9-1.89-1.45-3.84-3.26-5.57-5.05s-3.4-3.72-4.81-5.8c-.62-.91-1.2-1.84-1.7-2.82s-.63-1.23-.93-2.4l-4.57 1.93c1.21 2.28 2.41 4.56 3.62 6.84l1.49-3.67c-6.92 1.46-12.54-4.91-13.75-11.15l-4.57 1.93c1.6 3.11 3.2 6.21 4.8 9.32l2.16-3.76c-6.41.18-12.61-3.67-16.57-8.45-1.99-2.41-3.79-5.18-5.15-8.07-.67-1.42-1.2-2.91-1.54-4.45-.29-1.32-.36-2.9-.1-4.09l-4.91-.66c.39 3.52.77 7.05 1.16 10.57l1.24-2.16c-4.32 2.28-9.29 3.53-14.16 3.73l2.16 3.76c2.58-5.63 3.93-11.69 3.82-17.9-.04-2.34-2.63-3.06-4.27-1.77-5.63 4.44-13.87 6.92-20.87 4.71l1.75 3.08c1.49-4.7 1.77-9.56 1.06-14.42-.2-1.34-1.9-2.07-3.08-1.75-5.56 1.55-11.44 1.1-16.75-1.13l.6 4.57c3.7-2.8 7.39-5.64 11.58-7.68 2.36-1.14 1.04-4.56-1.26-4.66-9.14-.37-18.34-2.04-26.47-6.41l.51 3.93c1.2-1.28 2.68-2.13 4.13-3.08 1.71-1.12 3.18-2.35 4.41-3.99.93-1.25-.02-3.39-1.49-3.67-3.13-.61-6.34-.88-9.43-1.69-.72-.19-1.44-.41-2.14-.67s-1.83-.6-2.4-1.13c-.6-.56-.28-.95.08-1.32l-1.1.64c13.47-5.55 27.93-11.67 36.53-24.07 2.44-3.51 4.22-7.47 5.36-11.59.39-1.4-.76-3.38-2.41-3.16-2.59.34-5.13.91-7.68 1.46l2.82 3.67c4.83-6.35 10.61-12.07 13.87-19.46.73-1.64-.09-3.81-2.16-3.76-3.16.07-6.76.73-9.74-.66l.51 3.93c5.76-5.86 12.3-10.96 17.37-17.47.99-1.27.99-3.89-1.1-4.18s-4.15-.91-6.1-1.68c-.45-.18-.63-.25-1.26-.57-.58-.29-1.14-.61-1.68-.96-.13-.08-.25-.17-.37-.26.03.02.28.23.07.05-.19-.16-.36-.33-.54-.5-.1-.09-.18-.2-.27-.29.06.07.26.42.05.05-.12-.2-.38-.72-.14-.2-.03-.06-.06-.31-.09-.33.07.04-.02.48.04.24.16-.61-.08.33 0-.13.07-.4 0-.06-.04.05.06-.13.13-.26.21-.38 0 0 .22-.32.08-.13s.27-.29.31-.34c.78-.78 2.32-1.24 3.5-1.76 3.12-1.37 5.79-4.38 4.76-8.03s-4.74-4.63-7.49-6.33v4.32c11.65-6.05 18.3-17.84 23.21-29.51 3.64-8.66 6.27-16.94 11-25.01.61-1.03 1.24-2.05 1.91-3.04.57-.84 1.31-1.87 1.76-2.41.71-.87 1.44-1.71 2.23-2.5.35-.35.71-.7 1.08-1.03.18-.16.37-.32.55-.48.09-.08.64-.52.34-.29.8-.62 1.66-1.16 2.56-1.63.2-.1.41-.2.61-.3.43-.2-.21.06.23-.1s.92-.33 1.39-.45c1.65-.44 3.34-.46 5.01-.06 2.28.54 4.41 1.55 6.29 3.19 2.36 2.06 4.02 4.71 5.58 7.4 2.96 5.11 5.88 10.55 10.85 14 2.42 1.68 5.58 2.63 8.49 1.83 2.14-.58 3.46-2.58 4.54-4.37.51-.84 1-1.69 1.56-2.5.28-.39-.21.2.11-.12l.39-.39c.32-.33-.34.21.03 0 .18-.1-.17.07-.22.07-.07 0-.79-.03-.46 0 .24.01-.17-.1-.2-.11.15.06.49.31.18.07.45.35.79.82 1.08 1.29.77 1.25 1.23 2.62 1.63 4.02.42 1.52.74 3.06 1.09 4.59s2.38 2.42 3.67 1.49c1.39-1 2.66-2.26 3.94-3.29.64-.52-.17.27-.22-.08-.05 0-.09-.02-.12-.06.14.12.26.26.35.42.52.69.94 1.45 1.47 2.14 1.01 1.33 2.2 2.47 3.87 2.87 1.92.46 3.84-.23 5.57-1.01 1.54-.69 3.11-1.81 4.81-2.04.38-.05.7-.04 1.11.24.73.5 1.2 1.57 1.57 2.34 1.82 3.71 2.19 7.93 4.67 11.35.73 1.01 1.91 1.56 3.12 1.02 1.11-.49 1.81-1.73 1.45-2.95l-1.83-6.13-1.75 3.08c9.04-3.07 17.65-8.62 27.53-8.01 1.72.1 3.29.31 4.17 1.44 1.02 1.31 1.2 2.81 1.2 4.42 0 3.78-.29 7.55-.65 11.31-1.48 15.48-4.87 31.78-.57 47.1 2.52 8.95 7.94 16.37 15.51 21.73l-.9-3.42c-.05.09-.14.32-.23.37.27-.34.31-.4.14-.18l-.22.25c-.05.05-.55.52-.33.34-.13.11-.74.46-1.04.55-.75.22-1.41.22-2.21.15-1.77-.15-3.29 2.29-2.16 3.76 3.57 4.64 8.67 7.89 14.34 9.33l-1.49-3.67c-.14.34-.34.65-.53.96-.1.16-.21.3-.32.46-.22.31.37-.38-.12.13-.33.35-.66.68-1.01 1-.45.41.16-.08-.25.19-.25.17-.51.33-.77.48-.65.36-.66.36-1.5.58-1.34.35-2.96.25-4.52-.13-1.65-.4-3.86 1.21-3.08 3.08 2.52 6.03 7.9 9.38 13.75 11.75l-1.1-4.18c-3.48 2.99-6.98 6.16-9.35 10.15-2.49 4.18-3.22 8.91-2.4 13.68 1.66 9.74 5.19 19.59 10.55 27.91 3.08 4.79 6.84 9.13 11.21 12.8l1.1-4.18c-2.94 1.14-6.11 1.59-9.24 1.81-3.52.25-7.06.22-10.57-.15-.96-.1-1.95.71-2.28 1.54-.41 1.01-.14 1.9.52 2.73a28.73 28.73 0 0 0 11.18 8.58l-.51-3.93c-5.64 4.82-14.27 5.1-20.14.48-1.33-1.05-2.92-.93-3.93.51-1.39 1.99-1.74 4.79-1.04 7.1.76 2.52 2.66 4.51 4.48 6.32l1.1-4.18c-.26.05-.21 0 .01.01-.15 0-.31.03-.46.03-.38 0-.75 0-1.12-.04-.02 0-.33-.04-.69-.11-.38-.08-.77-.17-1.14-.27-1.69-.45-3.3-1.11-4.86-1.89-2.87-1.45-5.71-3.12-7.72-5.62-.8-1-2.73-.95-3.54 0-2.72 3.17-3.54 7.82-3 11.89l2.5-2.5c-3.83-.14-7.55-1.14-10.93-2.95-2.84-1.52-5.37 2.8-2.52 4.32z"/><path class="cls-2" d="M182.78 53.26c.97 2.61 3.11 4.76 5.71 5.76 1.98.76 2.56.93 3.93 2.55 1.04 1.23 3.18 2.41 4.32 3.55.23.23 1.07 1.05 1.13 1.18.41.77 2.6-.13 2.72-.28 1.79-2.08.83-4.89.77-7.98-.02-1.37.28-6.39.33-7.76.07-1.8-.51-1.5-1.98-2.54-1.48-1.04-2.25-2.27-4.06-2.33-.93-.03-2.95.83-3.83 1.16-1.2.44-2.17 1.33-3.11 2.2"/><path class="cls-3" d="M100.3 92.03c4.04 2.39 8.19.2 11.8-1.86.38-.22.76-.43 1.15-.63.32-.16.69-.33.86-.39.78-.28 1.59-.48 2.15-.42.36.04.72.15 1.07.25.23.07.41.21.11.03l.36.21c-.41-.25-.06-.08.03.06.21.29-.25-.52.05.06.07.13.15.25.21.38-.21-.45.06.27.07.31.88 3.09 5.71 1.78 4.82-1.33-.58-2.04-1.83-3.55-3.81-4.35s-4.34-.77-6.4-.03-3.65 1.85-5.48 2.82c-1.42.75-3.13 1.36-4.48.56-2.78-1.64-5.3 2.68-2.52 4.32zM165.12 102.74c.05-.05.11-.11.17-.16.14-.12.07-.07-.2.16.03.01.3-.18.33-.19.25-.16-.53.16-.11.05.12-.03.34-.06.44-.11l-.36.05c.1 0 .2-.01.3-.01.44-.04-.42-.11-.15-.04l.35.09c.19.07.18.06-.03-.03s-.22-.1-.03 0c.1.06.21.13.31.18.25.14-.41-.38-.11-.08.09.09.2.25.3.31-.16-.11-.3-.44-.1-.08.01.02.2.35.19.36-.13-.32-.16-.4-.1-.22.03.08.06.15.08.23.1.28.19.57.3.86.57 1.5 1.42 2.69 2.71 3.65 1.14.86 2.48 1.26 3.88 1.39 1.31.12 2.56-1.24 2.5-2.5-.07-1.46-1.1-2.37-2.5-2.5-.51-.05.56.12.1 0-.14-.03-.28-.06-.42-.11s-.27-.11-.4-.14l.33.14a4.509 4.509 0 0 1-.63-.35c-.08-.05-.45-.28-.09-.06s-.05-.06-.13-.13c-.09-.08-.16-.17-.25-.26-.35-.34.29.44.03.06-.08-.12-.16-.24-.23-.36s-.12-.27-.2-.38c.31.48.09.2.01-.01-.26-.74-.49-1.51-.89-2.19-.8-1.36-2.26-2.45-3.83-2.71-1.91-.31-3.74.21-5.15 1.57-.94.91-.98 2.63 0 3.54s2.53.97 3.54 0zM101.49 177.55c1.85 3.87 3.83 7.62 7.14 10.45 1.78 1.52 3.68 2.98 5.74 4.09 2.34 1.27 4.8 1.99 7.44 2.3 1.34.16 2.5-1.26 2.5-2.5 0-1.48-1.15-2.34-2.5-2.5-3.72-.44-7.24-2.77-10.04-5.28-.67-.6-1.31-1.25-1.89-1.94-.13-.15-.25-.3-.37-.46.29.38-.16-.22-.17-.24-.25-.35-.49-.71-.72-1.08-1.07-1.72-1.94-3.55-2.82-5.37-.58-1.22-2.32-1.54-3.42-.9-1.24.73-1.48 2.2-.9 3.42zM144.55 123.3c-2.07.46-4.16-.65-5.74-1.9-1.61-1.27-3-2.75-4.11-4.38-1.11-1.64-1.94-3.47-2-5.37s.72-3.88 2.38-5.11c1.94-1.44 4.66-1.65 7.2-1.79 1.13-.07 2.27-.13 3.4-.08 2.81.13 5.55.98 7.93 2.29.73.4 1.44.86 1.99 1.44s.92 1.26 1.24 1.96c.74 1.6 1.21 3.33.98 5.04-.35 2.62-2.34 4.93-4.89 6.35-2.55 1.41-5.59 2.01-8.6 2.17"/><path class="cls-3" d="M143.88 120.89c-1.58.27-3.24-1.13-4.31-2.1-1.48-1.33-2.8-2.87-3.68-4.67-.65-1.33-1-2.92-.36-4.32.69-1.5 2.28-2 3.78-2.28 3.73-.71 7.95-.66 11.48.82 1.77.74 3.17 1.56 3.93 3.37.63 1.49.95 3.13.22 4.64-1.83 3.8-6.83 4.83-10.62 5.06-3.2.19-3.22 5.19 0 5 5.49-.33 11.45-1.97 14.57-6.89s1.01-11.84-3.85-14.62c-5.17-2.96-11.3-3.29-17.07-2.19-2.66.5-5.14 1.86-6.56 4.22s-1.54 5.25-.66 7.78c1.01 2.93 2.99 5.55 5.29 7.61 2.6 2.34 5.59 4 9.18 3.39 1.33-.23 2.08-1.87 1.75-3.08-.39-1.41-1.74-1.97-3.08-1.75zM119.51 176.29c-2.16.5-5.5-2.33-6.7-4.19-9.62-14.92-10.59-33.76-17.64-50.04 3.38 5.47 5.13 12.27 10.26 16.15 3.75 2.83 8.77 3.57 13.43 2.92s9.04-2.55 13.28-4.58c4.28-2.04 8.72-4.46 11.01-8.61-1.05 4.3 1.08 8.87 4.3 11.91s7.38 4.83 11.45 6.56c-1.53 3.94-5.13 6.62-8.55 9.09-10.06 7.26-20.14 14.53-30.84 20.8"/><path class="cls-3" d="M118.85 173.88c.3-.05-.09-.07-.11-.07-.3-.08-.42-.14-.68-.27-.67-.34-1.27-.79-1.81-1.29-1.24-1.15-1.89-2.33-2.79-3.9-1.95-3.43-3.5-7.06-4.8-10.78-2.69-7.68-4.42-15.66-6.66-23.47-1.3-4.52-2.8-8.97-4.66-13.29l-4.32 2.52c2.08 3.42 3.51 7.18 5.56 10.62 2.16 3.64 5.07 6.67 9.02 8.33 9.03 3.8 18.65-.03 26.85-4.08 4.27-2.11 8.44-4.77 10.87-9l-4.57-1.93c-1.1 4.94.77 9.84 4.12 13.5s8.21 5.84 12.79 7.78l-1.15-2.82c-1.25 3.06-4.18 5.25-6.76 7.13-3.36 2.45-6.75 4.87-10.15 7.28-6.94 4.91-14 9.68-21.34 13.98-2.77 1.63-.26 5.95 2.52 4.32 7.75-4.55 15.18-9.61 22.5-14.81 3.49-2.48 7.02-4.93 10.42-7.52s6.04-5.2 7.61-9.05c.37-.91-.23-2.43-1.15-2.82-3.82-1.62-7.89-3.27-10.95-6.16-2.52-2.38-4.45-5.92-3.66-9.47.6-2.69-3.11-4.47-4.57-1.93-1.77 3.08-4.78 4.99-7.86 6.59-3.63 1.89-7.42 3.64-11.38 4.71-3.74 1.01-7.69 1.26-11.41.02-3.28-1.1-5.61-3.53-7.36-6.43-2.1-3.48-3.54-7.31-5.65-10.78-.7-1.15-2.24-1.59-3.42-.9-1.28.75-1.43 2.17-.9 3.42 6.84 15.92 7.82 33.98 16.98 48.98 2.09 3.42 5.82 7.15 10.19 6.4 1.33-.23 2.08-1.86 1.75-3.08-.39-1.41-1.74-1.98-3.08-1.75z"/><path class="cls-4" d="M112.73 146.7c2.92 2.34 6.39 6.1 7.57 9.65.94 2.83 1.22 5.83 1.49 8.81.65 7.14 1.31 14.27 1.96 21.41.87 9.48-.75 16.64 5.29 24 .87 1.06 5.85 3.98 7.16 4.4 4.92 1.6 10.16.6 12.54-.21 4.75-1.62 7.78-5.64 9.12-10.47 1.37-4.94.47-11.01-.29-16.09-.39-2.62-1.33-6.68-2.05-9.24a263.67 263.67 0 0 1-5.33-22.72c-.4-2.12-.79-4.29-1.82-6.2-1.86-3.45-3.76-5.63-7.48-6.85-3.04-1-5.6-.95-15.75 2.67-3.69 1.32-8.03 1.5-12.42.84"/><path class="cls-4" d="M110.97 148.47c2.61 2.12 5.18 4.68 6.62 7.76 1.6 3.45 1.6 7.69 1.94 11.41.75 8.15 1.78 16.32 2.04 24.5.21 6.51.51 13.05 4.45 18.54 1.59 2.21 3.63 3.58 5.97 4.93 2.69 1.56 5.33 2.43 8.47 2.65 6.65.46 13.25-1.77 17.12-7.39 4.3-6.23 3.74-13.97 2.74-21.09s-3.29-14.4-5.02-21.61c-1-4.18-1.9-8.38-2.7-12.6-.68-3.57-1.72-6.82-3.94-9.75-2.75-3.63-7.27-6.01-11.89-5.66-2.41.18-4.76.81-7.05 1.52-3.49 1.08-6.84 2.61-10.53 2.84-1.93.12-3.89.04-5.81-.23-1.33-.19-2.69.33-3.08 1.75-.32 1.17.4 2.88 1.75 3.08 3.91.56 7.85.68 11.72-.24 3.22-.76 6.28-2.15 9.48-3 .99-.26 1.98-.49 2.99-.65.7-.11-.52.04.15-.02.19-.02.38-.04.56-.05.34-.02.69-.03 1.03-.02.23 0 1.24.18.41 0 .29.06.57.1.86.17.92.23 1.81.55 2.64 1.01 2.2 1.24 3.87 3.6 4.76 5.95.62 1.63.88 3.39 1.21 5.1.36 1.91.75 3.82 1.16 5.72 1.59 7.43 3.87 14.69 5.45 22.11.66 3.07 1.13 6.2 1.41 9.33.3 3.4.34 6.85-.76 10.13-.83 2.46-2.33 4.82-4.48 6.34s-4.56 2.06-7.02 2.25c-1.65.13-3.34.11-4.96-.22-.45-.09-.91-.2-1.35-.33.02 0-1.11-.41-.26-.05-.49-.21-.96-.46-1.42-.71-1.04-.56-2.06-1.16-3.05-1.8-.45-.29-.9-.58-1.32-.9.41.31-.08-.07-.14-.12-.21-.21-.39-.39-.57-.63-3.6-4.66-3.8-10.3-3.98-15.94-.27-8.64-1.36-17.27-2.15-25.88-.4-4.35-.61-8.94-2.54-12.94-1.65-3.43-4.47-6.4-7.4-8.77-1.05-.85-2.51-1.02-3.54 0-.88.88-1.05 2.68 0 3.54z"/><path class="cls-3" d="M166.19 127.44c.49 3.01 1.19 6.01 1.1 9.08-.09 2.81-1.13 5.98-3.96 7.08-3.03 1.18-6.53-.39-9.04-2.09-2.37-1.61-4.33-3.77-5.66-6.3-1.56-2.97-1.96-6.29-1.57-9.59.16-1.34-1.26-2.5-2.5-2.5-1.48 0-2.34 1.15-2.5 2.5-.94 8 2.92 15.45 9.42 20.01 3.47 2.44 8.11 4.1 12.36 3.05 4.47-1.11 7.44-5.01 8.18-9.45s-.28-8.76-.99-13.12c-.22-1.33-1.87-2.08-3.08-1.75-1.42.39-1.96 1.74-1.75 3.08z"/><g><path class="cls-2" d="M115.58 30.59c-2.39-5.66-5.84-12.75-9.8-17.45-1.08-1.28-2.28-2.57-3.86-3.13-2.04-.73-4.37-.09-6.13 1.17s-3.06 3.05-4.26 4.85c-3 4.5-5.62 9.26-7.82 14.2-.49 1.11-.98 2.3-.86 3.51.19 1.95 2.02 3.48 3.96 3.75s3.91-.53 5.45-1.74 2.73-2.8 3.9-4.38c.73 1.29 1.51 2.64 2.78 3.4s3.18.68 3.97-.58c.37-.59.48-1.4 1.07-1.78 1.14-.74 2.35.77 3.55 1.41 1.27.68 2.9.29 4.06-.57s3.23-1.42 3.99-2.65z"/><path class="cls-3" d="M117.74 29.33c-2.12-5-4.49-9.97-7.56-14.47-1.5-2.2-3.16-4.49-5.33-6.07-2.45-1.79-5.55-1.96-8.31-.83s-4.68 3.28-6.36 5.64-3.24 4.93-4.68 7.5c-1.51 2.69-2.91 5.46-4.13 8.29s-1.51 5.93.8 8.38 5.9 2.77 8.88 1.54c3.2-1.32 5.27-3.98 7.28-6.68h-4.32c1.38 2.43 3.16 4.76 6.14 5.08 1.23.13 2.46-.13 3.5-.8.62-.4 1.14-.97 1.5-1.61.14-.25.29-.55.37-.81l.16-.31c-1.52.04-1.97.2-1.36.5 2.05 1.98 5.03 2.48 7.58 1.28 1-.47 1.94-1.14 2.94-1.65 1.17-.61 2.12-1.35 2.9-2.44s.19-2.78-.9-3.42c-1.26-.73-2.63-.21-3.42.9-.21.29-1.24.71-1.72.95-.69.35-1.35.95-2.07 1.23-.77.3-1.1.01-1.75-.45-.84-.6-1.66-1.14-2.71-1.29-1.18-.17-2.39.22-3.22 1.1-.41.43-.64.9-.89 1.42-.09.22-.19.44-.31.64.07-.2.17-.28.3-.24-1.28.27-2.09-1.46-2.73-2.58-1.01-1.77-3.24-1.44-4.32 0-1.23 1.65-2.54 3.45-4.42 4.4-1.21.62-3.14.92-4.01-.42-.41-.62-.2-1.25.03-1.91.4-1.17 1-2.3 1.54-3.42 1.04-2.16 2.16-4.28 3.37-6.35s2.48-4.15 3.87-6.13c1.04-1.48 2.33-3.05 4.06-3.73 3.83-1.51 6.5 3.34 8.22 6.03 2.68 4.19 4.83 8.7 6.76 13.28.53 1.24 2.36 1.52 3.42.9 1.29-.75 1.43-2.17.9-3.42z"/></g><path class="cls-3" d="M184.6 54.19c2.4-2.28 4.76-4.52 7.77-5.96 1.2-.57 2.76-1.03 4.21-.99.74.02 1.37.23 1.82.5.37.22.26.14.56.45s-.12-.22.12.12c.03.04.29.51.18.24.51 1.25 1.66 2.13 3.08 1.75 1.18-.32 2.26-1.82 1.75-3.08-2.03-4.96-7.6-5.83-12.24-4.15-4.22 1.53-7.57 4.54-10.77 7.59-2.34 2.22 1.2 5.75 3.54 3.54zM200.09 75.73l.95-5.17c.31-1.71.9-3.61-.06-5.23s-2.6-1.9-4.23-2.19c-.76-.14-1.53-.26-2.29-.41-.17-.03-.34-.07-.5-.11.74.45 1.07 1.02.97 1.7a.4.4 0 0 1-.15.3c.22-.2.23-.23.03-.09.58-.51 1.26-.87 1.77-1.46.62-.73 1.03-1.59 1.05-2.55.05-1.81-1.32-3.15-3.01-3.53-1.29-.29-2.62-.46-3.93-.71-1.73-.32-3.48-.59-5.24-.61-1.35-.02-2.5 1.16-2.5 2.5s1.14 2.48 2.5 2.5c2.49.03 4.87.66 7.44 1.07.2.03.49.16.68.14.18.06.12.03-.18-.08-.6-.4-.84-.98-.71-1.74.08-.22.38-.46.04-.19-.22.19-.24.21-.06.06-.1.07-.19.14-.29.21-1.29.93-2.45 2.22-2.44 3.92 0 1.87 1.47 3.13 3.19 3.49.76.16 1.53.28 2.29.41.33.06.66.11.98.18.2.04.71.26.89.22-.48.11-.74-.78-.78-1.07.07.52.07-.15 0 .33-.12.76-.28 1.51-.41 2.26l-.83 4.53c-.24 1.33.36 2.7 1.75 3.08 1.21.33 2.83-.41 3.08-1.75zM126.07 142.82c2.34-.37 4.63 1.39 6.01 2.92-.39-.43-.08-.1.1.18a26.815 26.815 0 0 1 2.06 3.84c.75 1.74 1.3 3.58 1.74 5.42.2.84.37 1.69.53 2.54.07.38.13.76.19 1.14.04.28-.02-.12-.02-.14.02.15.04.3.05.45.13 1.22.22 2.44.29 3.66.18 2.99.26 5.98.33 8.97s.09 5.68.13 8.51c.05 3.21 5.05 3.22 5 0-.09-5.98-.11-11.97-.48-17.94-.21-3.31-.64-6.58-1.51-9.79-.99-3.63-2.47-7.77-5.05-10.6-2.7-2.97-6.71-4.63-10.69-4.01-1.33.21-2.07 1.88-1.75 3.08.39 1.42 1.74 1.96 3.08 1.75z"/></g></svg>