<?xml version="1.0" encoding="UTF-8"?>
<svg id="Calque_2" data-name="Calque 2" xmlns="http://www.w3.org/2000/svg" viewBox="0 0 193.42 215.05">
  <defs>
    <style>
      .cls-1 {
        fill: #2c3e50;
        stroke-width: 0px;
      }
    </style>
  </defs>
  <g id="objects">
    <g>
      <polygon class="cls-1" points="98.59 146.32 52.87 100.6 74.51 78.97 96.78 101.23 170.12 15.05 193.42 34.88 98.59 146.32"/>
      <path class="cls-1" d="m176.39,71.76v33.22c0,45.42-23.34,72.91-42.92,87.98-20.91,16.08-41.77,21.55-42.65,21.78-.8.2-1.62.31-2.44.31-.87,0-1.72-.12-2.56-.34-.87-.24-21.69-5.97-42.57-22.15C15.19,170.79.36,140.51.36,104.98l-.36-70.98C54.71,34,88.06.29,88.2,0c.78,1.56,19.81,25.38,53.32,31.79l-14.27,16.77c-19.49-5.63-31.67-14.89-38.87-22.43-10.3,10.8-30.83,25.1-68.35,27.26v51.59c0,29.64,11.87,53.87,35.29,72.04,13.82,10.72,27.59,16.05,33.1,17.91,5.58-1.84,19.73-7.17,33.59-17.98,23.04-17.95,34.71-42.17,34.71-71.97v-10.11l19.67-23.11Z"/>
    </g>
  </g>
</svg>