<?xml version="1.0" encoding="UTF-8"?>
<svg id="Calque_2" data-name="Calque 2" xmlns="http://www.w3.org/2000/svg" viewBox="0 0 3771.49 2100.7">
  <defs>
    <style>
      .cls-1 {
        fill: #009a87;
        fill-rule: evenodd;
        stroke-width: 0px;
      }
    </style>
  </defs>
  <g id="Layer_1" data-name="Layer 1">
    <g>
      <path class="cls-1" d="m239.43,243.5c-17.25-19.27-42.8-97.93-47.84-123.47-1.72-8.63-2.78-15.33-2.33-23.39.94-16.5,5.19-14.66,11.15-26.16,7.5-14.45,4.21-26.38-2.86-33.27-10.32-10.01-27.15-17.54-39.61-6.21-6.13,5.57-2.9,14.24-16.09,17.34,3.82.17,9.34,3.28,17.87,2.09-1.03,5.36-10.58,4.23-18.54,2.49-14.92-3.26-30.61-12.02-42.21,2.48-16.51,20.73-.88,33.24,15.58,39.26,10.3,3.78,13.69,1.89,22.2,10.38,7.84,7.81,9.76,21.63,14.75,32.99,13.01,29.69,29.18,74.69,36.43,106.11,4.3,18.52,8.48,37.16.38,50.76-3.19,5.35-8.06,17-5.81,21.96,3.73,8.26,15.92,16.85,25.92,15.69,13.52-1.57,19.78-21.34,31.28-27.19-3.98.57-.85-1.59-11.44,2.28.17-4.24,6.98-7.59,11.85-6.51,4.9,1.07,17.97,11.58,26.42,11.54,15.99-.09,20.04-7.24,22.39-20.85.92-5.25-.73-14.08-4.99-19.22-7.29-8.79-15.36-11.61-24.75-16.12-8.26-3.97-11.43-3.66-19.76-12.99h0Z"/>
      <path class="cls-1" d="m1071.35,1901.58c-17.25-19.27-42.8-97.93-47.84-123.47-1.72-8.63-2.78-15.33-2.33-23.39.94-16.5,5.19-14.66,11.15-26.16,7.5-14.45,4.21-26.38-2.86-33.27-10.32-10.01-27.15-17.54-39.61-6.21-6.13,5.57-2.9,14.24-16.09,17.34,3.82.17,9.34,3.28,17.87,2.09-1.03,5.36-10.58,4.23-18.54,2.49-14.92-3.26-30.61-12.02-42.21,2.48-16.51,20.73-.88,33.24,15.58,39.26,10.3,3.78,13.69,1.89,22.2,10.38,7.84,7.81,9.76,21.63,14.75,32.99,13.01,29.69,29.18,74.69,36.43,106.11,4.3,18.52,8.48,37.16.38,50.76-3.19,5.35-8.06,17-5.81,21.96,3.73,8.26,15.92,16.85,25.92,15.69,13.52-1.57,19.78-21.34,31.28-27.19-3.98.57-.85-1.59-11.44,2.28.17-4.24,6.98-7.59,11.85-6.51,4.9,1.07,17.97,11.58,26.42,11.54,15.99-.09,20.04-7.24,22.39-20.85.92-5.25-.73-14.08-4.99-19.22-7.29-8.79-15.36-11.6-24.75-16.12-8.26-3.97-11.43-3.66-19.76-12.99h0Z"/>
      <path class="cls-1" d="m1994.39,572.93c-1.26-25.84,28.44-103.02,40.6-126.03,4.11-7.79,7.49-13.66,12.92-19.63,11.12-12.22,13.26-8.12,25.13-13.3,14.93-6.5,19.89-17.84,18.74-27.64-1.71-14.27-10.04-30.72-26.86-29.77-8.27.47-11.22,9.24-23.42,3.34,2.86,2.54,5.19,8.43,12.56,12.88-4.17,3.52-10.88-3.37-15.97-9.74-9.54-11.93-16.21-28.62-34.35-24.65-25.88,5.7-21.62,25.26-12.63,40.31,5.62,9.43,9.45,10.09,10.71,22.04,1.17,11-6.04,22.94-9.32,34.91-8.59,31.25-24.38,76.39-38.54,105.36-8.32,17.09-16.82,34.21-31.68,39.67-5.85,2.15-16.97,8.12-18.35,13.4-2.31,8.76,1.75,23.12,10.25,28.51,11.49,7.3,28.8-4.12,41.42-1.42-3.45-2.06.34-1.77-10.32-5.44,2.81-3.19,10.2-1.5,13.3,2.4,3.13,3.92,6.66,20.31,13.26,25.6,12.48,10,20.12,7,30.53-2.09,4.02-3.49,8.31-11.4,8.22-18.07-.13-11.41-4.62-18.69-9.07-28.11-3.91-8.28-6.57-10.04-7.16-22.53h0Z"/>
      <path class="cls-1" d="m2810.59,1744.57c-17.25-19.27-42.8-97.93-47.84-123.47-1.72-8.63-2.78-15.33-2.33-23.39.94-16.5,5.19-14.66,11.15-26.16,7.5-14.45,4.21-26.38-2.86-33.27-10.32-10.01-27.15-17.54-39.61-6.21-6.13,5.57-2.9,14.24-16.09,17.34,3.82.17,9.34,3.28,17.87,2.09-1.03,5.36-10.58,4.23-18.54,2.49-14.92-3.26-30.61-12.02-42.21,2.48-16.51,20.73-.88,33.24,15.58,39.26,10.3,3.78,13.69,1.89,22.2,10.38,7.84,7.81,9.76,21.63,14.75,32.99,13.01,29.69,29.18,74.69,36.43,106.11,4.3,18.52,8.48,37.16.38,50.76-3.19,5.35-8.06,17-5.81,21.96,3.73,8.26,15.92,16.85,25.92,15.69,13.52-1.57,19.78-21.34,31.28-27.19-3.98.57-.85-1.59-11.44,2.27.17-4.24,6.98-7.59,11.85-6.51,4.9,1.07,17.97,11.58,26.42,11.54,15.99-.09,20.04-7.24,22.39-20.85.92-5.25-.73-14.08-4.99-19.22-7.29-8.79-15.36-11.6-24.75-16.12-8.26-3.97-11.43-3.66-19.76-12.99h0Z"/>
      <path class="cls-1" d="m1544.89,959.15c-17.25-19.27-42.8-97.93-47.84-123.47-1.72-8.63-2.78-15.33-2.33-23.39.94-16.5,5.19-14.66,11.15-26.16,7.5-14.45,4.21-26.38-2.86-33.27-10.32-10.01-27.15-17.54-39.61-6.21-6.13,5.57-2.9,14.24-16.09,17.34,3.82.17,9.34,3.28,17.87,2.09-1.03,5.36-10.58,4.23-18.54,2.49-14.92-3.26-30.61-12.02-42.21,2.48-16.51,20.73-.88,33.24,15.58,39.26,10.3,3.78,13.69,1.89,22.2,10.38,7.84,7.81,9.76,21.63,14.75,32.99,13.01,29.69,29.18,74.69,36.43,106.11,4.3,18.52,8.48,37.16.38,50.76-3.19,5.35-8.06,17-5.81,21.96,3.73,8.26,15.92,16.85,25.92,15.69,13.52-1.57,19.78-21.34,31.28-27.19-3.98.57-.85-1.59-11.44,2.28.17-4.24,6.98-7.59,11.85-6.51,4.9,1.07,17.97,11.58,26.42,11.54,15.99-.09,20.04-7.24,22.39-20.85.92-5.25-.73-14.08-4.99-19.22-7.29-8.79-15.36-11.6-24.75-16.12-8.26-3.97-11.43-3.66-19.76-12.99h0Z"/>
      <path class="cls-1" d="m3168.74,268.88c-17.25-19.27-42.8-97.93-47.84-123.47-1.72-8.63-2.78-15.33-2.33-23.39.94-16.5,5.19-14.66,11.15-26.16,7.5-14.45,4.21-26.38-2.86-33.27-10.32-10.01-27.15-17.54-39.61-6.21-6.13,5.57-2.9,14.24-16.09,17.34,3.82.17,9.34,3.28,17.87,2.09-1.03,5.36-10.58,4.23-18.54,2.49-14.92-3.26-30.61-12.02-42.21,2.48-16.51,20.73-.88,33.24,15.58,39.26,10.3,3.78,13.69,1.89,22.2,10.38,7.84,7.81,9.76,21.63,14.75,32.99,13.01,29.69,29.18,74.69,36.43,106.11,4.3,18.52,8.48,37.16.38,50.76-3.19,5.35-8.06,17-5.81,21.96,3.73,8.26,15.92,16.85,25.92,15.69,13.52-1.57,19.78-21.34,31.28-27.19-3.98.57-.85-1.59-11.44,2.28.17-4.24,6.98-7.59,11.85-6.51,4.9,1.07,17.97,11.58,26.42,11.54,15.99-.09,20.04-7.24,22.39-20.85.92-5.25-.73-14.08-4.99-19.22-7.29-8.79-15.36-11.6-24.75-16.12-8.26-3.97-11.43-3.66-19.76-12.99h0Z"/>
      <path class="cls-1" d="m3539.24,411.32c1.71,25.81-26.64,103.5-38.4,126.72-3.97,7.86-7.25,13.79-12.58,19.85-10.91,12.41-13.12,8.35-24.9,13.73-14.81,6.76-19.57,18.18-18.25,27.97,1.96,14.24,10.58,30.55,27.37,29.3,8.26-.61,11.06-9.43,23.36-3.75-2.91-2.49-5.34-8.34-12.79-12.66,4.11-3.59,10.94,3.18,16.14,9.46,9.74,11.76,16.7,28.33,34.77,24.05,25.78-6.15,21.18-25.63,11.92-40.53-5.78-9.33-9.62-9.92-11.09-21.85-1.36-10.98,5.64-23.04,8.71-35.07,8.05-31.4,23.05-76.81,36.69-106.02,8.02-17.23,16.22-34.5,30.98-40.21,5.81-2.25,16.82-8.42,18.11-13.72,2.16-8.8-2.15-23.08-10.75-28.33-11.62-7.1-28.72,4.62-41.39,2.14,3.49,2-.31,1.78,10.41,5.26-2.75,3.23-10.17,1.67-13.34-2.17-3.19-3.86-7.02-20.19-13.7-25.37-12.65-9.78-20.24-6.65-30.49,2.63-3.96,3.56-8.11,11.54-7.91,18.21.33,11.41,4.94,18.6,9.56,27.94,4.06,8.22,6.74,9.92,7.55,22.41h0Z"/>
      <path class="cls-1" d="m464.07,528.42c1.71,25.81-26.64,103.5-38.4,126.72-3.97,7.86-7.25,13.79-12.58,19.85-10.91,12.41-13.12,8.35-24.9,13.73-14.81,6.76-19.57,18.18-18.25,27.97,1.96,14.24,10.58,30.55,27.37,29.3,8.26-.61,11.06-9.43,23.36-3.75-2.91-2.49-5.34-8.34-12.79-12.66,4.11-3.59,10.94,3.18,16.14,9.46,9.74,11.76,16.7,28.33,34.77,24.05,25.78-6.15,21.18-25.63,11.92-40.53-5.78-9.33-9.62-9.92-11.09-21.85-1.36-10.98,5.64-23.04,8.71-35.07,8.05-31.4,23.05-76.81,36.69-106.02,8.02-17.23,16.22-34.5,30.98-40.21,5.81-2.25,16.82-8.42,18.11-13.72,2.16-8.8-2.15-23.08-10.75-28.33-11.62-7.1-28.72,4.62-41.39,2.14,3.49,2-.31,1.78,10.41,5.26-2.75,3.23-10.17,1.67-13.34-2.17-3.19-3.86-7.02-20.19-13.7-25.37-12.65-9.78-20.24-6.65-30.49,2.63-3.96,3.56-8.11,11.54-7.91,18.21.33,11.41,4.94,18.6,9.56,27.94,4.06,8.22,6.74,9.92,7.55,22.41h0Z"/>
      <path class="cls-1" d="m3220.35,1700.21c1.71,25.81-26.64,103.5-38.4,126.72-3.97,7.86-7.25,13.79-12.58,19.85-10.91,12.41-13.12,8.35-24.9,13.73-14.81,6.76-19.57,18.18-18.25,27.97,1.96,14.24,10.58,30.55,27.37,29.3,8.27-.61,11.06-9.43,23.36-3.75-2.91-2.49-5.34-8.34-12.79-12.66,4.11-3.59,10.94,3.18,16.14,9.46,9.74,11.76,16.7,28.33,34.77,24.05,25.78-6.15,21.18-25.63,11.92-40.53-5.78-9.33-9.62-9.92-11.09-21.85-1.36-10.98,5.64-23.04,8.71-35.07,8.05-31.4,23.05-76.81,36.69-106.02,8.02-17.23,16.22-34.5,30.98-40.21,5.81-2.25,16.82-8.42,18.11-13.72,2.16-8.8-2.15-23.08-10.75-28.33-11.62-7.1-28.72,4.62-41.39,2.14,3.49,2-.31,1.78,10.41,5.26-2.75,3.23-10.17,1.67-13.34-2.17-3.19-3.86-7.02-20.19-13.7-25.37-12.65-9.78-20.24-6.65-30.49,2.63-3.96,3.56-8.11,11.54-7.91,18.21.33,11.41,4.94,18.6,9.56,27.94,4.06,8.22,6.74,9.92,7.55,22.41h0Z"/>
      <path class="cls-1" d="m2329.93,1299.57c-.37,25.86-34.88,101.02-48.47,123.22-4.59,7.51-8.34,13.16-14.13,18.78-11.87,11.5-13.75,7.26-25.92,11.69-15.31,5.55-20.97,16.55-20.44,26.41.81,14.35,8.09,31.3,24.92,31.41,8.29.06,11.78-8.51,23.58-1.86-2.7-2.72-4.65-8.74-11.73-13.65,4.38-3.25,10.65,4.05,15.33,10.73,8.76,12.51,14.37,29.59,32.72,26.77,26.19-4.06,23.17-23.84,15.14-39.44-5.02-9.76-8.79-10.66-9.3-22.68-.47-11.05,7.48-22.51,11.51-34.26,10.55-30.65,29.15-74.7,45.1-102.72,9.38-16.53,18.94-33.08,34.11-37.59,5.97-1.77,17.45-7.04,19.15-12.21,2.86-8.6-.29-23.18-8.44-29.1-11.01-8.01-29,2.29-41.42-1.2,3.32,2.27-.45,1.75,9.96,6.08-3,3-10.27.85-13.12-3.24-2.87-4.11-5.37-20.69-11.61-26.39-11.82-10.77-19.64-8.26-30.6.16-4.23,3.23-9.01,10.85-9.35,17.52-.59,11.4,3.43,18.94,7.28,28.62,3.38,8.51,5.92,10.44,5.73,22.94h0Z"/>
      <path class="cls-1" d="m2623.13,999.13c-12.93-22.4-21.81-104.62-21.51-130.65.09-8.8.42-15.58,2.52-23.37,4.3-15.95,8.08-13.28,16.27-23.32,10.3-12.61,9.53-24.96,4.02-33.15-8.05-11.91-22.98-22.73-37.5-14.2-7.15,4.2-5.76,13.34-19.3,13.68,3.71.95,8.47,5.12,17.06,5.71-2.1,5.03-11.22,1.98-18.66-1.36-13.94-6.25-27.5-18.04-41.82-6.22-20.41,16.9-7.68,32.35,7.2,41.62,9.31,5.81,13.01,4.65,19.6,14.71,6.07,9.25,5.11,23.17,7.67,35.31,6.65,31.73,13.24,79.09,13.9,111.32.41,19.01.68,38.11-10.04,49.76-4.22,4.58-11.38,14.98-10.19,20.3,1.95,8.85,12.13,19.76,22.15,20.67,13.56,1.24,23.73-16.83,36.19-20.19-4.01-.25-.51-1.73-11.66-.12,1.04-4.12,8.39-5.99,12.93-3.94,4.57,2.06,15.21,15.02,23.49,16.71,15.67,3.19,21.1-2.97,26.19-15.82,1.98-4.94,2.18-13.93-.95-19.83-5.33-10.09-12.65-14.51-20.92-20.85-7.27-5.58-10.43-5.93-16.67-16.77h0Z"/>
      <path class="cls-1" d="m2576.45,2012.88c-25.55,4.04-105.49-17.16-129.67-26.78-8.18-3.24-14.39-5.98-20.91-10.73-13.35-9.74-9.5-12.31-15.93-23.55-8.08-14.14-19.88-17.85-29.5-15.65-14.01,3.24-29.46,13.3-26.71,29.91,1.36,8.18,10.39,10.16,5.84,22.92,2.22-3.12,7.82-6.07,11.45-13.88,3.94,3.77-2.18,11.18-7.96,16.93-10.83,10.77-26.71,19.2-20.81,36.81,8.46,25.11,27.44,18.77,41.44,8.21,8.77-6.6,9.01-10.48,20.76-13.02,10.81-2.35,23.46,3.53,35.71,5.5,32,5.17,78.58,16,108.9,26.95,17.89,6.43,35.82,13.03,42.85,27.21,2.76,5.58,9.9,15.99,15.3,16.79,8.96,1.35,22.79-4.23,27.24-13.27,6.02-12.21-7.2-28.19-5.87-41.02-1.68,3.66-1.8-.15-4.29,10.85-3.47-2.45-2.59-9.98.96-13.48,3.56-3.53,19.47-8.82,24.03-15.94,8.6-13.49,4.79-20.76-5.37-30.12-3.91-3.62-12.23-7.03-18.85-6.23-11.33,1.36-18.08,6.61-26.97,12.05-7.81,4.78-9.27,7.61-21.63,9.55h0Z"/>
      <path class="cls-1" d="m2128.23,971.95c-25.55,4.04-105.49-17.16-129.67-26.78-8.18-3.24-14.39-5.98-20.91-10.73-13.35-9.74-9.5-12.31-15.93-23.55-8.08-14.14-19.88-17.85-29.5-15.65-14.01,3.24-29.46,13.3-26.71,29.91,1.36,8.18,10.39,10.16,5.84,22.92,2.22-3.12,7.82-6.07,11.45-13.88,3.94,3.77-2.18,11.18-7.96,16.93-10.83,10.77-26.71,19.2-20.81,36.81,8.46,25.11,27.44,18.77,41.44,8.21,8.77-6.61,9.01-10.48,20.76-13.02,10.81-2.35,23.46,3.53,35.71,5.5,32,5.17,78.58,16,108.9,26.95,17.89,6.43,35.82,13.03,42.85,27.21,2.76,5.58,9.91,15.99,15.3,16.79,8.96,1.35,22.79-4.23,27.24-13.27,6.02-12.21-7.2-28.19-5.87-41.02-1.68,3.66-1.8-.15-4.29,10.85-3.47-2.45-2.59-9.98.96-13.48,3.56-3.53,19.47-8.82,24.03-15.94,8.6-13.49,4.79-20.76-5.37-30.12-3.91-3.62-12.22-7.03-18.85-6.23-11.33,1.36-18.08,6.61-26.97,12.05-7.81,4.78-9.27,7.61-21.63,9.55h0Z"/>
      <path class="cls-1" d="m2997.19,653.73c-25.55,4.04-105.49-17.16-129.67-26.78-8.18-3.24-14.39-5.98-20.91-10.73-13.35-9.74-9.5-12.31-15.93-23.55-8.08-14.14-19.88-17.85-29.5-15.65-14.01,3.24-29.46,13.3-26.71,29.91,1.36,8.18,10.39,10.16,5.84,22.92,2.22-3.12,7.82-6.07,11.45-13.88,3.94,3.77-2.18,11.18-7.96,16.93-10.83,10.77-26.71,19.2-20.81,36.81,8.46,25.11,27.44,18.77,41.44,8.21,8.77-6.61,9.01-10.48,20.76-13.02,10.81-2.35,23.46,3.53,35.71,5.5,32,5.17,78.58,16,108.9,26.95,17.89,6.43,35.82,13.03,42.85,27.21,2.76,5.58,9.9,15.99,15.3,16.79,8.96,1.35,22.79-4.23,27.24-13.27,6.02-12.21-7.2-28.19-5.87-41.02-1.68,3.66-1.8-.15-4.29,10.85-3.47-2.45-2.59-9.98.96-13.48,3.56-3.53,19.47-8.82,24.03-15.94,8.6-13.49,4.79-20.76-5.37-30.12-3.91-3.62-12.23-7.03-18.85-6.23-11.33,1.36-18.08,6.61-26.97,12.05-7.81,4.78-9.27,7.61-21.63,9.55h0Z"/>
      <path class="cls-1" d="m1289.89,488.61c-25.55,4.04-105.49-17.16-129.67-26.78-8.18-3.24-14.39-5.98-20.91-10.73-13.35-9.74-9.5-12.31-15.93-23.55-8.08-14.14-19.88-17.85-29.5-15.65-14.01,3.24-29.46,13.3-26.71,29.91,1.36,8.18,10.39,10.16,5.84,22.92,2.22-3.12,7.82-6.07,11.45-13.88,3.94,3.77-2.18,11.18-7.96,16.93-10.83,10.77-26.71,19.2-20.81,36.81,8.46,25.11,27.44,18.77,41.44,8.21,8.77-6.61,9.01-10.48,20.76-13.02,10.81-2.35,23.46,3.53,35.71,5.5,32,5.17,78.58,16,108.9,26.95,17.89,6.43,35.82,13.03,42.85,27.21,2.76,5.58,9.91,15.99,15.3,16.79,8.96,1.35,22.79-4.23,27.24-13.27,6.02-12.21-7.2-28.19-5.87-41.02-1.68,3.66-1.8-.15-4.29,10.85-3.47-2.45-2.59-9.98.96-13.48,3.56-3.53,19.47-8.82,24.03-15.94,8.6-13.49,4.79-20.76-5.37-30.12-3.91-3.62-12.23-7.03-18.85-6.23-11.33,1.36-18.08,6.61-26.97,12.05-7.81,4.78-9.27,7.61-21.63,9.55h0Z"/>
      <path class="cls-1" d="m3667.6,1294.53c-19.85,16.58-99.34,39.41-125.03,43.58-8.69,1.42-15.42,2.26-23.45,1.53-16.46-1.51-14.47-5.69-25.76-12.04-14.19-7.99-26.22-5.12-33.35,1.72-10.36,9.97-18.46,26.54-7.57,39.38,5.36,6.32,14.13,3.39,16.78,16.67.3-3.82,3.6-9.22,2.7-17.79,5.32,1.21,3.87,10.71,1.86,18.62-3.77,14.8-13.07,30.18,1.03,42.27,20.15,17.21,33.19,2.02,39.77-14.23,4.13-10.17,2.36-13.62,11.13-21.83,8.07-7.56,21.95-9.01,33.48-13.61,30.12-11.98,75.65-26.6,107.3-32.77,18.65-3.66,37.43-7.2,50.74,1.36,5.24,3.37,16.71,8.64,21.75,6.56,8.38-3.44,17.39-15.33,16.57-25.37-1.1-13.57-20.65-20.5-26.1-32.19.44,4-1.62.8,1.88,11.51-4.23-.32-7.34-7.24-6.1-12.06,1.24-4.86,12.19-17.56,12.44-26.01.46-15.99-6.54-20.28-20.07-23.1-5.21-1.1-14.1.24-19.38,4.33-9.03,6.98-12.12,14.95-16.96,24.18-4.25,8.11-4.05,11.3-13.66,19.3h0Z"/>
      <path class="cls-1" d="m537.61,1987.16c-25.55,4.04-105.49-17.16-129.67-26.78-8.18-3.24-14.39-5.98-20.91-10.73-13.35-9.74-9.5-12.31-15.93-23.55-8.08-14.14-19.88-17.85-29.5-15.65-14.01,3.24-29.46,13.3-26.71,29.91,1.36,8.18,10.39,10.16,5.84,22.92,2.22-3.12,7.82-6.07,11.45-13.88,3.94,3.77-2.18,11.18-7.96,16.93-10.83,10.77-26.71,19.2-20.81,36.81,8.46,25.11,27.44,18.77,41.44,8.21,8.77-6.6,9.01-10.48,20.76-13.02,10.81-2.35,23.46,3.53,35.71,5.5,32,5.17,78.58,16,108.9,26.95,17.89,6.43,35.82,13.03,42.85,27.21,2.76,5.58,9.9,15.99,15.3,16.79,8.96,1.35,22.79-4.23,27.24-13.27,6.02-12.21-7.2-28.19-5.87-41.02-1.68,3.66-1.8-.15-4.29,10.85-3.47-2.45-2.59-9.98.96-13.48,3.56-3.53,19.47-8.82,24.03-15.94,8.6-13.49,4.79-20.76-5.37-30.12-3.91-3.62-12.22-7.03-18.85-6.23-11.33,1.36-18.08,6.61-26.97,12.05-7.81,4.78-9.27,7.61-21.63,9.55h0Z"/>
      <path class="cls-1" d="m3680.37,101.96c-25.55,4.04-105.49-17.16-129.67-26.78-8.18-3.24-14.39-5.98-20.91-10.73-13.35-9.74-9.5-12.31-15.93-23.55-8.08-14.14-19.88-17.85-29.5-15.65-14.01,3.24-29.46,13.3-26.71,29.91,1.36,8.18,10.39,10.16,5.84,22.92,2.22-3.12,7.82-6.07,11.45-13.88,3.94,3.77-2.18,11.18-7.96,16.93-10.83,10.77-26.71,19.2-20.81,36.81,8.46,25.11,27.44,18.77,41.44,8.21,8.77-6.61,9.01-10.48,20.76-13.02,10.81-2.35,23.46,3.53,35.71,5.5,32,5.17,78.58,16,108.9,26.95,17.89,6.43,35.82,13.03,42.85,27.21,2.76,5.58,9.9,15.99,15.3,16.79,8.96,1.35,22.79-4.23,27.24-13.27,6.02-12.21-7.2-28.19-5.87-41.02-1.68,3.66-1.8-.15-4.29,10.85-3.47-2.45-2.59-9.98.96-13.48,3.56-3.53,19.47-8.82,24.03-15.94,8.6-13.49,4.79-20.76-5.37-30.12-3.91-3.62-12.23-7.03-18.85-6.23-11.33,1.36-18.08,6.61-26.97,12.05-7.81,4.78-9.27,7.61-21.63,9.55h0Z"/>
      <path class="cls-1" d="m2292.13,42.81c-21.61,14.22-103.18,27.86-129.18,29.08-8.79.42-15.57.49-23.47-1.15-16.18-3.37-13.73-7.3-24.23-14.89-13.19-9.55-25.47-8.06-33.33-2.09-11.42,8.73-21.36,24.27-11.99,38.26,4.61,6.89,13.66,4.97,14.78,18.47.74-3.76,4.62-8.75,4.71-17.37,5.15,1.81,2.63,11.08-.27,18.71-5.43,14.28-16.41,28.5-3.78,42.11,18.06,19.39,32.74,5.78,41.13-9.61,5.26-9.63,3.89-13.26,13.54-20.43,8.88-6.6,22.83-6.45,34.81-9.71,31.28-8.48,78.18-17.82,110.33-20.36,18.95-1.52,38.01-2.9,50.26,7.12,4.82,3.94,15.62,10.48,20.86,8.99,8.72-2.47,19.02-13.26,19.34-23.32.45-13.61-18.18-22.71-22.27-34.95-.02,4.02-1.7.61.56,11.65-4.17-.8-6.47-8.02-4.69-12.68,1.79-4.68,14.11-16.06,15.32-24.43,2.27-15.83-4.2-20.89-17.32-25.23-5.05-1.69-14.04-1.36-19.74,2.1-9.77,5.91-13.75,13.48-19.6,22.1-5.15,7.58-5.31,10.76-15.77,17.62h0Z"/>
      <path class="cls-1" d="m938.96,800.96c-21.61,14.22-103.18,27.86-129.18,29.08-8.79.42-15.57.49-23.47-1.15-16.18-3.37-13.73-7.3-24.23-14.89-13.19-9.55-25.47-8.06-33.33-2.09-11.42,8.73-21.36,24.27-11.99,38.26,4.61,6.89,13.66,4.97,14.78,18.47.74-3.76,4.62-8.75,4.71-17.37,5.15,1.81,2.63,11.08-.27,18.71-5.43,14.28-16.41,28.5-3.78,42.11,18.06,19.39,32.74,5.78,41.13-9.61,5.26-9.63,3.89-13.26,13.54-20.43,8.88-6.6,22.83-6.46,34.81-9.71,31.28-8.48,78.18-17.82,110.33-20.36,18.95-1.52,38.01-2.9,50.26,7.12,4.82,3.94,15.62,10.48,20.86,8.99,8.72-2.47,19.02-13.26,19.34-23.32.45-13.61-18.18-22.71-22.27-34.95-.02,4.02-1.7.61.56,11.65-4.17-.8-6.47-8.02-4.69-12.68,1.79-4.68,14.11-16.06,15.32-24.43,2.27-15.83-4.2-20.89-17.32-25.23-5.05-1.69-14.04-1.36-19.74,2.1-9.77,5.91-13.75,13.48-19.6,22.1-5.15,7.58-5.31,10.76-15.77,17.62h0Z"/>
      <path class="cls-1" d="m618,1264.86c10.93,23.45,12.59,106.13,10.02,132.03-.86,8.76-1.78,15.48-4.55,23.06-5.68,15.52-9.21,12.52-18.25,21.81-11.36,11.66-11.68,24.03-6.9,32.67,6.98,12.57,20.91,24.65,36.11,17.42,7.48-3.56,6.9-12.79,20.42-11.94-3.61-1.27-7.99-5.84-16.5-7.18,2.53-4.83,11.35-.99,18.47,2.99,13.34,7.44,25.82,20.38,41.12,9.85,21.81-15.06,10.48-31.55-3.54-42.09-8.77-6.61-12.56-5.77-18.24-16.36-5.24-9.74-3.07-23.52-4.56-35.85-3.85-32.18-6.28-79.94-4.12-112.11,1.25-18.97,2.65-38.03,14.34-48.69,4.6-4.2,12.64-13.93,11.92-19.34-1.17-8.99-10.35-20.74-20.26-22.52-13.4-2.42-25.11,14.69-37.81,16.96,3.98.6.35,1.77,11.61,1.14-1.39,4.01-8.88,5.24-13.22,2.8-4.37-2.45-13.84-16.29-21.95-18.7-15.33-4.55-21.28,1.12-27.47,13.47-2.4,4.75-3.39,13.69-.79,19.84,4.43,10.52,11.34,15.56,19.02,22.6,6.75,6.19,9.88,6.81,15.14,18.16h0Z"/>
      <path class="cls-1" d="m1228.21,1217.91c-25.55,4.04-105.49-17.16-129.67-26.78-8.18-3.24-14.39-5.98-20.91-10.73-13.35-9.74-9.5-12.31-15.93-23.55-8.08-14.14-19.88-17.85-29.5-15.65-14.01,3.24-29.46,13.3-26.71,29.91,1.36,8.18,10.39,10.16,5.84,22.92,2.22-3.12,7.82-6.07,11.45-13.88,3.94,3.77-2.18,11.18-7.96,16.93-10.83,10.77-26.71,19.2-20.81,36.81,8.46,25.11,27.44,18.77,41.44,8.21,8.77-6.61,9.01-10.48,20.76-13.02,10.81-2.35,23.46,3.53,35.71,5.5,32,5.17,78.58,16,108.9,26.95,17.89,6.43,35.82,13.03,42.85,27.21,2.76,5.58,9.9,15.99,15.3,16.79,8.96,1.35,22.79-4.23,27.24-13.27,6.02-12.21-7.2-28.19-5.87-41.02-1.68,3.66-1.8-.15-4.29,10.85-3.47-2.45-2.59-9.98.96-13.48,3.56-3.53,19.47-8.82,24.03-15.94,8.6-13.49,4.79-20.76-5.37-30.12-3.91-3.62-12.23-7.03-18.85-6.23-11.33,1.36-18.08,6.61-26.97,12.05-7.81,4.78-9.27,7.61-21.63,9.55h0Z"/>
      <path class="cls-1" d="m1439.25,146.92c25.05,6.44,90,57.64,108.38,76.07,6.22,6.22,10.83,11.2,14.93,18.15,8.39,14.24,3.83,15.07,5.27,27.94,1.8,16.18,11.16,24.27,20.87,26.08,14.14,2.59,32.32-.51,36.39-16.85,2-8.04-5.5-13.45,3.74-23.36-3.28,1.98-9.59,2.46-16.02,8.19-2.12-5.02,6.44-9.4,14.03-12.38,14.22-5.58,32.13-7.02,33.71-25.52,2.21-26.41-17.73-28.12-34.77-23.98-10.67,2.58-12.43,6.04-24.23,3.71-10.85-2.14-20.13-12.56-30.59-19.23-27.31-17.45-65.76-45.89-89.25-67.98-13.87-13.01-27.7-26.18-28.52-41.99-.32-6.22-2.74-18.61-7.37-21.49-7.69-4.8-22.6-5.17-30.27,1.36-10.37,8.82-4.59,28.73-10.9,39.98,2.99-2.69,1.59.85,8.25-8.25,2.21,3.62-1.59,10.19-6.23,12-4.67,1.83-21.37.36-28.38,5.09-13.25,8.96-12.64,17.15-7.03,29.78,2.15,4.87,8.43,11.31,14.83,13.2,10.94,3.26,19.22,1.11,29.53-.35,9.07-1.29,11.54-3.31,23.64-.18h0Z"/>
      <path class="cls-1" d="m1975.35,1786.86c22.58-12.62,104.92-20.35,130.94-19.68,8.8.21,15.57.64,23.33,2.84,15.89,4.53,13.17,8.27,23.09,16.6,12.46,10.48,24.82,9.88,33.09,4.49,12.02-7.88,23.05-22.66,14.72-37.3-4.1-7.2-13.26-5.94-13.41-19.49-1.01,3.69-5.24,8.4-5.95,16.98-5-2.17-1.82-11.25,1.62-18.64,6.44-13.85,18.43-27.24,6.81-41.73-16.62-20.64-32.24-8.13-41.72,6.62-5.94,9.23-4.83,12.95-14.98,19.4-9.33,5.94-23.24,4.79-35.42,7.18-31.82,6.2-79.27,12.14-111.51,12.34-19.01.15-38.12.15-49.61-10.73-4.52-4.28-14.82-11.58-20.16-10.47-8.88,1.83-19.93,11.85-20.97,21.86-1.43,13.54,16.5,23.96,19.69,36.47.31-4.01,1.74-.48.28-11.66,4.1,1.1,5.88,8.47,3.76,12.98-2.12,4.54-15.23,15-17.04,23.26-3.41,15.63,2.68,21.14,15.45,26.41,4.92,2.05,13.9,2.37,19.84-.67,10.17-5.19,14.68-12.45,21.14-20.62,5.68-7.19,6.07-10.35,17-16.44h0Z"/>
      <path class="cls-1" d="m3406.08,899.27c25.05,6.44,90,57.64,108.38,76.07,6.22,6.22,10.83,11.2,14.93,18.15,8.39,14.24,3.83,15.07,5.27,27.94,1.8,16.18,11.16,24.27,20.87,26.08,14.14,2.59,32.32-.51,36.39-16.85,2-8.04-5.5-13.45,3.74-23.36-3.28,1.98-9.59,2.46-16.02,8.19-2.12-5.02,6.44-9.4,14.03-12.38,14.22-5.58,32.13-7.02,33.71-25.52,2.21-26.41-17.73-28.12-34.77-23.98-10.67,2.58-12.43,6.04-24.23,3.71-10.85-2.14-20.13-12.56-30.59-19.23-27.31-17.45-65.76-45.89-89.25-67.98-13.87-13.01-27.7-26.18-28.52-41.99-.32-6.22-2.74-18.61-7.37-21.49-7.69-4.8-22.6-5.17-30.27,1.36-10.37,8.82-4.59,28.73-10.9,39.98,2.99-2.69,1.59.85,8.25-8.25,2.21,3.62-1.59,10.19-6.23,12-4.67,1.83-21.37.36-28.38,5.09-13.25,8.96-12.64,17.15-7.03,29.78,2.15,4.87,8.43,11.31,14.83,13.2,10.94,3.26,19.22,1.11,29.53-.35,9.07-1.29,11.54-3.31,23.64-.18h0Z"/>
      <path class="cls-1" d="m1464.92,1849.81c23.89,9.92,80.94,69.79,96.53,90.63,5.28,7.04,9.14,12.62,12.21,20.08,6.29,15.28,1.66,15.46,1.26,28.41-.51,16.28,7.61,25.61,16.97,28.76,13.63,4.56,32.07,4.07,38.4-11.53,3.12-7.68-3.54-14.1,7-22.59-3.52,1.5-9.84,1.08-17.02,5.84-1.39-5.27,7.7-8.39,15.64-10.27,14.86-3.51,32.8-2.4,36.98-20.49,5.92-25.83-13.58-30.35-31.03-28.66-10.93,1.05-13.16,4.22-24.51.25-10.44-3.65-18.15-15.28-27.57-23.37-24.57-21.14-58.61-54.73-78.74-79.92-11.89-14.84-23.72-29.84-22.29-45.6.56-6.2-.08-18.81-4.26-22.31-6.93-5.84-21.64-8.31-30.16-2.93-11.52,7.26-8.6,27.79-16.44,38.04,3.34-2.24,1.45,1.06,9.33-7,1.68,3.9-3.01,9.86-7.86,10.99-4.88,1.15-21.21-2.67-28.81,1.02-14.38,7-14.94,15.19-11.17,28.49,1.44,5.13,6.74,12.38,12.81,15.17,10.37,4.77,18.87,3.82,29.28,3.83,9.16.01,11.89-1.64,23.43,3.17h0Z"/>
      <path class="cls-1" d="m71.77,977.05c25.05,6.44,90,57.64,108.38,76.07,6.22,6.22,10.83,11.2,14.93,18.15,8.39,14.24,3.83,15.07,5.27,27.94,1.8,16.18,11.16,24.27,20.87,26.08,14.14,2.59,32.32-.51,36.39-16.85,2-8.04-5.5-13.45,3.74-23.36-3.28,1.98-9.59,2.46-16.02,8.19-2.12-5.02,6.44-9.4,14.03-12.38,14.22-5.58,32.13-7.02,33.71-25.52,2.21-26.41-17.73-28.12-34.77-23.98-10.67,2.58-12.43,6.04-24.23,3.71-10.85-2.14-20.13-12.56-30.59-19.23-27.31-17.45-65.76-45.89-89.25-67.98-13.87-13.01-27.7-26.18-28.52-41.99-.32-6.22-2.74-18.61-7.37-21.49-7.69-4.8-22.6-5.17-30.27,1.36-10.37,8.82-4.59,28.73-10.9,39.98,2.99-2.69,1.59.85,8.25-8.25,2.21,3.62-1.59,10.19-6.23,12-4.67,1.83-21.37.36-28.38,5.09-13.25,8.96-12.64,17.15-7.03,29.78,2.15,4.87,8.43,11.31,14.83,13.2,10.94,3.26,19.22,1.11,29.53-.35,9.07-1.29,11.54-3.31,23.64-.18h0Z"/>
      <path class="cls-1" d="m144.89,1691.62c12.87-22.44,79.51-71.42,102.16-84.23,7.66-4.34,13.68-7.46,21.47-9.56,15.96-4.29,15.54.32,28.34,2.36,16.08,2.57,26.37-4.29,30.69-13.18,6.26-12.94,8.11-31.29-6.56-39.56-7.22-4.07-14.43,1.72-21.52-9.82,1.04,3.69-.18,9.9,3.63,17.62-5.41.71-7.35-8.71-8.2-16.82-1.6-15.19,1.79-32.84-15.63-39.28-24.87-9.15-31.83,9.61-32.37,27.14-.35,10.97,2.51,13.59-2.87,24.34-4.95,9.89-17.46,16.06-26.68,24.37-24.09,21.69-61.73,51.18-89.27,67.94-16.23,9.91-32.61,19.74-48.07,16.32-6.08-1.35-18.67-2.31-22.67,1.39-6.67,6.14-10.99,20.41-6.74,29.54,5.74,12.35,26.47,12.07,35.64,21.14-1.8-3.6,1.24-1.31-5.76-10.15,4.08-1.17,9.4,4.24,9.91,9.2.52,4.99-5.34,20.7-2.65,28.71,5.11,15.15,13.17,16.75,26.84,14.7,5.27-.77,13.14-5.12,16.67-10.78,6.05-9.68,6.19-18.23,7.52-28.56,1.17-9.09-.12-12,6.12-22.84h0Z"/>
      <path class="cls-1" d="m2504.65,430.98c12.87-22.44,79.51-71.42,102.16-84.23,7.66-4.34,13.68-7.46,21.47-9.56,15.96-4.29,15.54.32,28.34,2.36,16.08,2.57,26.37-4.29,30.69-13.18,6.26-12.94,8.11-31.29-6.56-39.56-7.22-4.07-14.43,1.72-21.52-9.82,1.04,3.69-.18,9.9,3.63,17.62-5.41.71-7.35-8.71-8.2-16.82-1.6-15.19,1.79-32.84-15.63-39.28-24.87-9.15-31.83,9.61-32.37,27.14-.35,10.97,2.51,13.59-2.87,24.34-4.95,9.89-17.46,16.06-26.68,24.37-24.09,21.69-61.73,51.18-89.27,67.94-16.23,9.91-32.61,19.74-48.07,16.32-6.08-1.35-18.67-2.31-22.67,1.39-6.67,6.13-10.99,20.41-6.74,29.54,5.74,12.34,26.47,12.07,35.64,21.14-1.8-3.6,1.24-1.31-5.76-10.15,4.08-1.17,9.4,4.24,9.91,9.2.52,4.99-5.34,20.7-2.65,28.71,5.11,15.15,13.17,16.75,26.84,14.7,5.27-.77,13.14-5.12,16.67-10.78,6.05-9.68,6.19-18.23,7.52-28.56,1.17-9.09-.12-12,6.12-22.84h0Z"/>
      <path class="cls-1" d="m3584.17,2036.74c12.87-22.44,79.51-71.42,102.16-84.23,7.66-4.34,13.68-7.46,21.47-9.56,15.96-4.29,15.54.32,28.34,2.36,16.08,2.57,26.37-4.29,30.69-13.18,6.26-12.94,8.11-31.29-6.56-39.56-7.22-4.07-14.43,1.72-21.52-9.82,1.04,3.69-.18,9.9,3.63,17.62-5.41.71-7.35-8.71-8.2-16.82-1.6-15.19,1.79-32.84-15.63-39.28-24.87-9.15-31.83,9.61-32.37,27.14-.35,10.97,2.51,13.59-2.87,24.34-4.95,9.89-17.46,16.06-26.68,24.37-24.09,21.69-61.73,51.18-89.27,67.94-16.23,9.91-32.61,19.74-48.07,16.32-6.08-1.35-18.67-2.31-22.67,1.39-6.67,6.13-10.99,20.41-6.74,29.54,5.74,12.34,26.47,12.06,35.64,21.14-1.8-3.6,1.24-1.31-5.76-10.15,4.08-1.17,9.4,4.24,9.91,9.2.52,4.99-5.34,20.7-2.65,28.71,5.11,15.15,13.17,16.75,26.84,14.7,5.27-.77,13.14-5.12,16.67-10.78,6.05-9.68,6.19-18.23,7.52-28.56,1.17-9.09-.12-12,6.12-22.84h0Z"/>
      <path class="cls-1" d="m3029.11,1254.36c12.87-22.44,79.51-71.42,102.16-84.23,7.66-4.34,13.68-7.46,21.47-9.56,15.96-4.29,15.54.32,28.34,2.36,16.08,2.57,26.37-4.29,30.69-13.18,6.26-12.94,8.11-31.29-6.56-39.56-7.22-4.07-14.43,1.72-21.52-9.82,1.04,3.69-.18,9.9,3.63,17.62-5.41.71-7.35-8.71-8.2-16.82-1.6-15.19,1.79-32.84-15.63-39.28-24.87-9.15-31.83,9.61-32.37,27.14-.35,10.97,2.51,13.59-2.87,24.34-4.95,9.89-17.46,16.06-26.68,24.37-24.09,21.69-61.73,51.18-89.27,67.94-16.23,9.91-32.61,19.74-48.07,16.32-6.08-1.35-18.67-2.31-22.67,1.39-6.67,6.14-10.99,20.41-6.74,29.54,5.74,12.35,26.47,12.07,35.64,21.14-1.8-3.6,1.24-1.31-5.76-10.15,4.08-1.17,9.4,4.24,9.91,9.2.52,4.99-5.34,20.7-2.65,28.71,5.11,15.15,13.17,16.75,26.84,14.7,5.27-.77,13.14-5.12,16.67-10.78,6.05-9.68,6.19-18.23,7.52-28.56,1.17-9.09-.12-12,6.12-22.84h0Z"/>
      <path class="cls-1" d="m761.03,270.37c12.87-22.44,79.51-71.42,102.16-84.23,7.66-4.34,13.68-7.46,21.47-9.56,15.96-4.29,15.54.32,28.34,2.36,16.08,2.57,26.37-4.29,30.69-13.18,6.26-12.94,8.11-31.29-6.56-39.56-7.22-4.07-14.43,1.72-21.52-9.82,1.04,3.69-.18,9.9,3.63,17.62-5.41.71-7.35-8.71-8.2-16.82-1.6-15.19,1.79-32.84-15.63-39.28-24.87-9.15-31.83,9.61-32.37,27.14-.35,10.97,2.51,13.59-2.87,24.34-4.95,9.89-17.46,16.06-26.68,24.37-24.09,21.69-61.73,51.18-89.27,67.94-16.23,9.91-32.61,19.74-48.07,16.32-6.08-1.35-18.67-2.31-22.67,1.39-6.67,6.13-10.99,20.41-6.74,29.54,5.74,12.34,26.47,12.07,35.64,21.14-1.8-3.6,1.24-1.31-5.76-10.15,4.08-1.17,9.4,4.24,9.91,9.2.52,4.99-5.34,20.7-2.65,28.71,5.11,15.15,13.17,16.75,26.84,14.7,5.27-.77,13.14-5.12,16.67-10.78,6.05-9.68,6.19-18.23,7.52-28.56,1.17-9.09-.12-12,6.12-22.84h0Z"/>
      <path class="cls-1" d="m1690.62,1444.26c12.87-22.44,79.51-71.42,102.16-84.23,7.66-4.34,13.68-7.46,21.47-9.56,15.96-4.29,15.54.32,28.34,2.36,16.08,2.57,26.37-4.29,30.69-13.18,6.26-12.94,8.11-31.29-6.56-39.56-7.22-4.07-14.43,1.72-21.52-9.82,1.04,3.69-.18,9.9,3.63,17.62-5.41.71-7.35-8.71-8.2-16.82-1.6-15.19,1.79-32.84-15.63-39.28-24.87-9.15-31.83,9.61-32.37,27.14-.35,10.97,2.51,13.59-2.87,24.34-4.95,9.89-17.46,16.06-26.68,24.37-24.09,21.69-61.73,51.18-89.27,67.94-16.23,9.91-32.61,19.74-48.07,16.32-6.08-1.35-18.67-2.31-22.67,1.39-6.67,6.14-10.99,20.41-6.74,29.54,5.74,12.35,26.47,12.07,35.64,21.14-1.8-3.6,1.24-1.31-5.76-10.15,4.08-1.17,9.4,4.24,9.91,9.2.52,4.99-5.34,20.7-2.65,28.71,5.11,15.15,13.17,16.75,26.84,14.7,5.27-.77,13.14-5.12,16.67-10.78,6.05-9.68,6.19-18.23,7.52-28.56,1.17-9.09-.12-12,6.12-22.84h0Z"/>
    </g>
  </g>
</svg>