meme <?xml version="1.0" standalone="no"?>
<!DOCTYPE svg PUBLIC "-//W3C//DTD SVG 20010904//EN"
 "http://www.w3.org/TR/2001/REC-SVG-20010904/DTD/svg10.dtd">
<svg version="1.0" xmlns="http://www.w3.org/2000/svg"
 width="256.000000pt" height="256.000000pt" viewBox="0 0 256.000000 256.000000"
 preserveAspectRatio="xMidYMid meet">
<metadata>
Created by potrace 1.14, written by Peter Selinger 2001-2017
</metadata>
<g transform="translate(0.000000,256.000000) scale(0.100000,-0.100000)"
fill="#000000" stroke="none">
<path d="M975 2541 c-79 -48 -144 -148 -210 -321 -68 -177 -132 -277 -209
-326 -54 -34 -58 -57 -15 -79 36 -19 35 -26 -10 -57 -19 -13 -39 -31 -45 -40
-16 -26 8 -64 56 -89 l43 -22 -79 -72 c-91 -84 -95 -104 -27 -121 l43 -10 -61
-77 c-73 -91 -78 -115 -23 -108 19 3 15 -12 -19 -63 -46 -69 -154 -145 -279
-197 -69 -28 -90 -46 -90 -76 0 -32 31 -60 81 -73 l41 -11 -22 -24 c-12 -13
-19 -28 -15 -34 11 -19 82 -50 146 -65 33 -8 63 -17 65 -19 3 -2 -7 -12 -21
-21 -59 -39 -9 -78 103 -80 l54 0 -6 -58 c-3 -32 -1 -60 4 -63 28 -17 108 -16
163 2 55 19 57 19 57 1 0 -10 -7 -35 -15 -55 -9 -20 -13 -43 -11 -50 7 -17 80
-16 131 2 22 8 41 15 41 15 1 0 20 -24 42 -54 30 -40 58 -62 103 -85 34 -17
71 -31 81 -31 10 0 36 -9 58 -20 22 -11 50 -20 63 -20 14 0 38 -16 62 -41 53
-55 114 -99 137 -99 10 0 22 10 27 23 5 12 17 30 27 39 31 27 140 86 176 93
41 9 100 39 117 58 20 25 78 30 125 12 23 -9 60 -15 82 -13 37 3 39 5 42 39
l3 35 66 -33 c71 -36 130 -43 140 -18 3 9 -1 23 -9 33 -30 35 -31 43 -3 32 47
-18 128 -12 176 13 55 29 60 51 18 76 l-32 19 49 7 c107 14 137 39 91 75 -72
57 -152 204 -183 338 -20 88 -9 127 58 198 27 29 47 58 43 64 -3 5 -24 19 -46
30 -39 21 -51 40 -25 40 21 0 64 41 68 65 2 14 -9 25 -44 42 -51 24 -57 33
-33 53 22 18 20 24 -35 76 -109 103 -133 216 -107 491 24 248 23 295 -7 330
-23 26 -29 28 -103 27 -66 0 -92 -6 -165 -36 l-86 -36 -24 36 c-36 55 -50 60
-110 38 l-52 -18 -22 27 c-18 23 -27 27 -52 22 -25 -5 -31 -3 -36 16 -8 34
-44 67 -71 67 -17 0 -32 -11 -47 -35 -14 -21 -31 -35 -44 -35 -26 0 -71 48
-117 125 -59 100 -121 145 -199 145 -24 0 -56 -8 -73 -19z m155 -61 c16 -11
46 -49 66 -83 56 -92 90 -133 128 -151 49 -23 65 -20 103 21 38 40 47 36 59
-24 9 -47 27 -58 59 -37 25 16 26 16 50 -10 29 -31 40 -32 96 -7 53 24 63 18
86 -55 20 -63 45 -93 66 -76 8 7 12 24 9 40 -4 27 0 30 79 61 94 37 193 47
209 21 14 -21 12 -106 -5 -250 -34 -287 -12 -420 93 -547 24 -30 30 -43 19
-43 -45 0 -15 -61 49 -100 40 -26 38 -34 -10 -32 -71 3 -69 -39 6 -102 l42
-36 -32 -33 c-37 -39 -62 -94 -62 -140 0 -98 81 -297 156 -386 l36 -41 -39 -2
c-21 -1 -60 -2 -88 -2 -66 -1 -71 -24 -16 -76 31 -30 37 -40 25 -44 -33 -13
-98 -5 -135 16 -47 26 -69 14 -69 -38 0 -19 -5 -34 -10 -34 -9 0 -64 34 -106
65 -18 13 -32 -2 -49 -51 -11 -31 -18 -38 -36 -36 -31 3 -31 3 -10 48 26 55
34 116 17 139 -21 30 -46 12 -46 -33 0 -58 -18 -101 -51 -117 -24 -13 -32 -13
-50 -3 -18 11 -23 10 -33 -7 -14 -25 -65 -75 -76 -75 -5 0 -10 10 -12 22 -5
34 -33 28 -60 -12 -13 -19 -51 -50 -88 -71 -36 -20 -78 -48 -94 -63 -16 -14
-32 -26 -36 -26 -19 0 -105 89 -132 137 -21 37 -36 53 -50 53 -17 0 -20 -5
-16 -30 3 -20 0 -30 -8 -30 -16 0 -57 49 -73 88 -15 36 -35 46 -51 27 -9 -11
-9 -23 -2 -45 14 -37 6 -38 -45 -1 -73 53 -122 135 -123 207 0 34 -25 53 -44
34 -10 -10 -13 -68 -5 -99 3 -9 -11 -19 -40 -27 -42 -13 -43 -13 -37 9 4 12
10 47 13 78 7 70 -7 79 -73 42 -49 -27 -118 -45 -141 -36 -10 4 -13 16 -9 42
4 20 2 50 -2 66 l-9 30 -69 -3 c-76 -3 -76 -7 -1 49 34 26 9 45 -71 52 -37 3
-91 13 -120 22 l-53 16 31 29 c39 37 35 52 -16 64 -92 21 -114 27 -114 34 0 4
49 31 109 60 132 64 232 149 274 235 30 61 33 87 15 105 -9 9 -7 17 9 34 38
43 73 103 73 125 0 20 -5 23 -42 23 l-42 0 68 68 c103 103 104 109 31 132 -72
22 -82 41 -34 60 46 20 64 53 49 90 -7 17 -17 30 -23 30 -5 0 15 26 45 58 70
73 98 122 174 304 61 146 106 229 142 261 56 51 116 57 172 17z"/>
<path d="M1034 2480 c-33 -13 -86 -82 -127 -163 -44 -88 -46 -118 -11 -146 33
-26 60 -26 101 -1 24 14 39 17 55 11 14 -5 33 -4 48 2 14 5 40 9 57 8 40 -3
93 32 93 60 0 48 -96 201 -140 224 -32 17 -45 18 -76 5z m73 -72 c24 -27 83
-130 83 -145 0 -16 -32 -25 -44 -13 -15 15 -42 12 -56 -5 -12 -14 -16 -13 -37
7 l-23 22 -33 -32 c-31 -31 -56 -40 -70 -26 -4 4 12 42 34 85 66 127 103 154
146 107z"/>
<path d="M1994 2116 c-40 -18 -104 -74 -104 -92 0 -29 31 -26 70 5 60 48 88
56 120 32 33 -24 55 -14 47 21 -11 44 -74 59 -133 34z"/>
<path d="M1931 1990 c-25 -15 -8 -45 27 -48 26 -3 32 -8 32 -26 0 -27 18 -46
42 -46 15 0 17 -8 15 -47 -2 -38 1 -48 15 -51 19 -4 30 17 41 76 5 26 2 38
-16 56 -12 12 -22 31 -22 41 0 31 -102 65 -134 45z"/>
<path d="M1175 1689 c-21 -12 -55 -22 -74 -23 -29 -1 -36 -5 -36 -21 0 -34 48
-43 100 -17 55 26 73 27 97 5 17 -15 20 -15 34 -1 20 20 4 55 -32 68 -35 14
-44 13 -89 -11z"/>
<path d="M1705 1556 c-25 -18 -13 -46 20 -46 14 0 25 -4 25 -10 0 -19 40 -50
65 -50 38 0 31 26 -20 76 -47 47 -61 52 -90 30z"/>
<path d="M1430 1502 c-82 -41 -61 -140 44 -216 19 -13 19 -14 -7 -40 -15 -15
-58 -42 -95 -59 -56 -27 -79 -32 -139 -32 -87 0 -107 15 -159 118 -26 51 -39
67 -55 67 -27 0 -26 -4 40 -235 78 -267 126 -356 201 -366 23 -4 25 -9 28 -56
l3 -53 -28 11 c-46 17 -92 58 -114 100 -22 43 -44 58 -61 41 -32 -32 82 -167
165 -195 40 -13 42 -16 48 -63 11 -85 49 -138 121 -169 77 -32 183 -8 225 51
53 75 53 160 -3 387 -19 76 -34 144 -34 151 0 22 79 94 110 101 37 8 77 55 86
99 10 54 -8 140 -30 144 -28 6 -35 -9 -26 -62 10 -66 -4 -114 -37 -127 -40
-15 -107 22 -139 77 -35 60 -30 92 19 109 49 17 67 33 84 73 25 60 -12 126
-86 151 -50 16 -121 14 -161 -7z"/>
</g>
</svg>
